<svg xmlns="http://www.w3.org/2000/svg" viewBox="0 0 2003 808">
  <path fill="#251F20" d="M211.4 4.4A40 40 0 0 1 227 26l.8 6 .4 3.6.4 3.6.3 3.6a452.3 452.3 0 0 1 2.2 56.6v12.4c-.1 2.8-.6 5.5-1.1 8.2h15v-7.2c-.6-63-.6-63 7-80.8l.9-2.2c5.4-13 10.3-22 23.8-27.7 9.8-3.4 18.2-2 27.8 1.9A35.3 35.3 0 0 1 321 20.8a32.4 32.4 0 0 1-1 22.6 29 29 0 0 1-17.7 14.2A24 24 0 0 1 285 54c-3.7-2.8-5.3-5-6-9.4-.2-4.3.5-7 3-10.6 2.7-2.2 4-3 7.5-2.8 2.6.8 5 1.7 7.5 2.8-.7-6.4-.7-6.4-4.7-11.2-4.3-1-6.3-.6-10.3 1.2-8 9-8 22.6-9 34a5066 5066 0 0 1-2 19l-1.6 16.6-1.2 13-.3 2.3-.4 4.4c-.4 4.3-1 8.5-1.6 12.8h26c-.8 4.2-2 7.6-3.5 11.6l-.7 1.9a2037.1 2037.1 0 0 1-4 9.8L280 159l23 1c-3.9 10.4-7.8 20.7-12 31a421 421 0 0 0 29.8 15l1.9.8c7 3.4 7 3.4 14.3 6.2a5818 5818 0 0 0 12-12c5.3-5.2 10.4-10.4 15.2-16 4.4-4.9 9.1-9.4 13.8-14 3.6-3.5 7.2-7.1 10.5-11 4.8-5.6 10.2-10.7 15.5-16a199 199 0 0 0 12.6-13.5c2.2-2.4 3.4-2.5 6.7-2.9 3.7.4 3.7.4 6.3 2.3 2 2.6 3.4 5 4.9 7.8 3.4 6 8.1 9 13.8 12.5 2.7 1.8 2.7 1.8 3.7 3.8.7 7 .7 7-1.9 10.4L447 167l-4.6 4.3a355 355 0 0 1-13.5 11.3l-9.4 7.9-14.7 12.2-9.3 7.8-14.7 12.2-9.3 7.8c-5.8 5-11.6 9.7-17.5 14.5l-6.2 5-4.8 4c1.8 5.6 3.9 11.1 5.9 16.7a48 48 0 0 1 2.1 8.3h3l.6-1.9.7-2.4.8-2.4c1-2.5 1.8-3.7 3.9-5.3 6.9-.8 6.9-.8 10.4 1.6 4 5.9 3.8 11.5 3.6 18.4l8 1 .9-2c1.1-2 1.1-2 3.1-3 6.2-.6 6.2-.6 9.3 1.6 4.3 6.2 4.2 13 3.7 20.4l-1 3a2654.6 2654.6 0 0 0 41.7-.3h3.5c6.6 0 6.6 0 12-3.1 2.8-4 4-6.4 4-11.4l-.1-2.4-.1-1.8c-2.9.3-4.5.6-6.7 2.6A36.1 36.1 0 0 0 449 302c-3.4.3-6.6.4-10 0a15.2 15.2 0 0 1-5.4-10.4c0-6.7 3.6-13.5 8-18.4 5.3-4.5 9.4-4.5 16.1-4.5 6.2.5 9.5 3.3 13.6 7.8 5.5 6.6 5.3 13.2 4.9 21.5-1 11.2-7 19.4-15.1 26.7-7.4 4.6-14.2 4.7-22.7 4.6h-3.6a1979 1979 0 0 1-19-.2L397 329l1 16 3.4-.1c20-.4 41 1.2 58.3 11.7 8.3 8.5 8.6 19 8.4 30.2-.2 7.9-1.6 15.3-7.1 21.2-6.4 4-12.7 3.8-20 3-4-1.5-6.8-4.3-9-8-1-3-1.1-5-1.1-8.1v-9.2l.1-7.7h13l1 14h6a26 26 0 0 0-2-18c-3-4.1-7.8-4.6-12.6-5.4l-8.8-1.2a300.7 300.7 0 0 0-25.4-2.2 54 54 0 0 1-8.2-1.2v1.8c-.5 7.8-2.5 15-8.4 20.4a15 15 0 0 1-9.6-.2c-2-2-2-2-3-4v-2h-2l-.3 2.2c-1.5 9.9-1.5 9.9-5.7 13.8a17.4 17.4 0 0 1-10 1c-4.6-1.9-6.5-4.8-9-9l-3.4 5.2-1.9 3c-3 4.7-3 4.7-3.4 10.1.8 3 2 5 3.9 7.6l2 2.9 2.1 3a1113234375.5 1113234375.5 0 0 1 66.8 94.9l1.5 2a9944.6 9944.6 0 0 0 22.6 32.2l1.4 2.1c5 7.4 5 7.4 4.4 13-2.1 3-3.8 4.7-7.5 5.6l-9 .9c-8.5 1-14.1 2.3-19.6 9.2l-2.4 3.5c-2.5 2.8-2.5 2.8-6 3.8-5 0-5 0-7.5-2a59 59 0 0 1-4.4-8.5L382 569l-1.4-3-9.9-21.3-8.1-17.6-1.7-3.5a12108.8 12108.8 0 0 0-20.5-44.1 5600.5 5600.5 0 0 1-23.6-51l-1.6-3.7C314 422 314 422 314 420l-2.8 1.7-3.8 2.2-1.8 1A45 45 0 0 1 293 430c2 9.8 5.4 18.2 10.7 26.7 1.3 2.3 1.3 2.3 1.3 4.3l-24 3 2.6 6.1a5250 5250 0 0 1 8.2 19.6 36 36 0 0 1 2.2 9.3l-30-1c2 35.8 4.2 72 26 102a12 12 0 0 0 7.9-3.6c2.5-3.3 2.5-3.3 2-7.3l-.9-3.1a233 233 0 0 0-14-5c-1.8-10.7-1.8-10.7 2-16 3.9-3.6 7-3.5 12-3.3a27 27 0 0 1 19.4 10.9c4.7 7 5.6 14.2 4 22.4a30 30 0 0 1-12.1 19.7 41 41 0 0 1-27.6 2.7 42.2 42.2 0 0 1-25.3-19.4 73.9 73.9 0 0 1-6-20.6l-.3-2.5c-2-14.3-2.8-28.7-3.8-43a3311.6 3311.6 0 0 0-1.4-18.5l-.3-3.6-.2-3.1a15 15 0 0 0-2.4-6.7c-2-.8-2-.8-4-1a28.1 28.1 0 0 0-5.4 18 8020.2 8020.2 0 0 1-.4 7.5c-3.2 72.3-3.2 72.3-19 87.5a38.4 38.4 0 0 1-28.8 7.5c-9.2-1.3-15.9-5-21.4-12.5a34.2 34.2 0 0 1-3.7-25.7A25 25 0 0 1 171 568a30.4 30.4 0 0 1 22-.7c3 1.7 3 1.7 5 4.7.2 2.5.2 2.5.1 5.2v2.7l-.1 2.1c-4.8 2.4-9.7 2.6-15 3-.6 7.1-.6 7.1 1.4 13.8 4 1.9 7.4 1.5 11.6.2 9.5-6.8 10.5-23.1 12.4-33.9 2.3-14.6 3.3-29.4 4.6-44.1a422227120.5 422227120.5 0 0 1 2-24c-7.2-.9-14.3-1.1-21.6-1H183c2.3-6.2 5-12 8.4-17.7l1.2-1.8c2.6-4.3 5.4-8.4 8.4-12.5h-3.4c-8 0-15.7 0-23.6-1 .6-4 2-7.2 3.8-10.8l1.6-3.3a1895 1895 0 0 1 6.6-13.2c1-2.9 1.2-4 0-6.7-2-1.9-3.8-3.4-6-5l-1.8-1.5A224.9 224.9 0 0 0 154 407l-3.3-2c-2.6-1.2-2.6-1.2-4.8-.5a42.7 42.7 0 0 0-6.2 6.1 132 132 0 0 1-8.8 9.5c-2.6 2.5-5 5-7.3 7.8-2.7 3.2-5.6 6.1-8.6 9.1s-5.8 5.8-8.5 9c-3.5 4-7.3 7.8-11 11.6-2.8 2.7-5.2 5.5-7.7 8.4-2 2.3-4.1 4.4-6.3 6.5a133 133 0 0 0-7.9 8.4c-3 3.4-6 6.8-9.2 10l-2.7 2.9c-3 2.5-4.7 3.2-8.7 3.2-4.2-2-7.3-5-10.6-8.3l-1.6-1.6a1025.3 1025.3 0 0 1-11.3-11.4l-1.5-1.4c-4-4-7.7-7.9-8.4-13.6 3.2-8.6 12.8-13.9 20-19.1l12.3-9.5L67.5 420 92 401a5180.4 5180.4 0 0 1 40-31c-1.9-5-4.3-9.6-6.8-14.3-1.2-2.7-1.2-2.7-1.2-5.7l-2 1.2-2.7 1.4-2.6 1.5c-2.7.9-2.7.9-5.3.3a14.7 14.7 0 0 1-5.6-5.8l-1.5-2.3c-1.2-2-2.3-4.2-3.3-6.3-3.4.4-5.6.7-8.5 2.8-2.5 1.2-2.5 1.2-5.6.3A19.4 19.4 0 0 1 79 330v-13h-2.6a429.5 429.5 0 0 1-32.7-.8l-6-.3-3.6-.1c-4.3.3-6.8 1.9-9.8 4.9-1.9 3.3-2.5 6.6-3.3 10.3l3 1 .3-1.9c1.2-6.5 1.2-6.5 3.3-9.2A18 18 0 0 1 38 320c2.8 1.8 4.5 3 6 6 0 8.6 0 16.7-5 24-5.9 5.6-11.5 5.3-19.3 5.2-6.4-.4-10.6-1.7-15-6.6C-2 340.5-.9 330.9 0 321a29 29 0 0 1 12-18 70 70 0 0 1 39-9.1h2.6a2865.2 2865.2 0 0 1 26.4.1v-14l-3.2.1c-20.4.5-44-1-60-15a42.8 42.8 0 0 1-12-29.4 27 27 0 0 1 7.5-19.2c6.6-5.8 14-6.7 22.7-6.5 6.2.9 9.9 3.2 13.8 8 2.9 4.9 3.5 9.5 3.5 15v3.7c-.3 3.6-1.2 5.4-3.3 8.3l-1.2 1.8c-3 2-6.3 2-9.8 1.2a18.4 18.4 0 0 1-7.5-7.6c-.5-2.4-.5-2.4.4-4.7L32 234h-4c1.1 8.4 1.1 8.4 6 15 13.8 9 33.2 7.7 49 8l.3-2.2C85 245 85 245 88 240.9l1.6-2.1C91 237 91 237 93 235c1.8.3 1.8.3 4 1l2.4.8 2.3.8 2.5.8 1.8.6.5-2.1a21 21 0 0 1 11.6-9.7c3.4-.4 5.3 1.8 7.9 3.8l4 4c3.6-4.9 7.1-9.9 8-16-1.2-5.6-5.6-10.1-9-14.5-3.7-4.7-6.7-9.8-9.9-14.8A3269 3269 0 0 0 87.8 141l-11.3-17.6-15.4-24-15-23c-8-12.5-8-12.5-8.2-17.2 1.4-4.1 2.4-5 6.1-7.3l7.2-1.8a37.2 37.2 0 0 0 23.4-13.4c2.4-3 3.8-4.6 7.4-6 3.9.2 5.7 1 9 3.2 1.8 2.7 3 5.7 4.1 8.7l1.2 2.7 3.5 8.7a3571.3 3571.3 0 0 0 16.6 40.3l1 2.4 5.2 12.6 13.3 32L161 202c3-1.2 5.8-2.3 8.7-3.7l2-1 4-2c3-1.3 5-2.3 8.3-2.3-4.4-8.8-8.8-17.7-13.6-26.3-2.4-4.5-2.4-4.5-2.4-6.7h27l-5.1-10.1c-4.3-8.5-8.3-17-11.9-25.9a209.5 209.5 0 0 1 32 4c3.2-54 3.2-54-11-103-3-2-4.9-3-8.6-2.9-3.6 1.3-6.5 2.6-8.8 5.8-.7 2.5-.4 3.7.4 6.1l3.8-.1c5.6 0 5.6 0 8.2 2.1 3 4.5 4 8.7 3 14a17.7 17.7 0 0 1-9 9c-6.6 1-13.4.9-19.2-2.6-4.4-3.5-8.8-8-10.8-13.4-1.1-12.2-.4-23 7.7-32.9a38 38 0 0 1 45.7-5.7ZM176 10l-2.1 1.4A25.1 25.1 0 0 0 164 28c-.9 6.4-1.2 12 2.6 17.6 4.3 4.7 8 7.6 14.5 8 3.7-.2 4.8-.5 8-2.8 2-2.6 2-2.6 2.5-5.4-.4-2.5-.4-2.5-2-4.1a15.8 15.8 0 0 0-7.2-1.7c-4.1-.3-4.1-.3-6.5-2.6-1.3-4.2-1-7.7.1-12 2.7-4.8 6.8-7.5 12-9 5-.3 8.9.5 13.3 2.6 7.8 7 9.8 15.9 10.8 26l.2 2.4a551.7 551.7 0 0 1 2 33c.7 18.4 1 36.7.7 55l-4-.7-5-.8-2.6-.4A73 73 0 0 0 189 132l.7 1.5A4717 4717 0 0 1 205 166h-27l3.6 7.1L193 196l-1.6.4a114 114 0 0 0-28.3 12.9C160 211 160 211 158 211a36951731031 36951731031 0 0 1-34.4-82.8l-11.6-28-6.3-14.8a8285504.6 8285504.6 0 0 1-3.5-8.6L86 38c-5.1.7-7 3-10.3 6.8C69 51.9 62.2 53.8 53 56a88 88 0 0 0-8 3l-1 2c1.3 2.4 2.7 4.6 4.1 6.9l1.4 2.1 4.5 7 1.5 2.3a3978.5 3978.5 0 0 0 19.6 30.4 5003.2 5003.2 0 0 0 37.9 58.8l12.4 19.3 2.6 4 7.6 11.5 1.9 2.7 3.6 5.2 1.6 2.4 1.5 2.2c1.2 3.3.2 5-1.2 8.2a122.2 122.2 0 0 1-4.4 8.3l-1.7 3-3.3 5.9-1.5 2.6c-1.2 2.1-1.2 2.1-1.1 4.2h-2l-.8-2.2a32 32 0 0 0-4.8-7.6l-2-2.4-1.4-1.8c-6 2.1-8.3 5.4-11 11-10.6-1-10.6-1-15-2-3.3 5.8-6 11.4-4.5 18.2l.5 1.8a1735.6 1735.6 0 0 1-17.7-.3c-33.2-.6-33.2-.6-43.2-9.3a21.6 21.6 0 0 1-6.4-16v-2.9c.3-2.5.3-2.5 2.3-5.5 2-.4 2-.4 4.4-.4h2.4c2.7.5 3.6 1.2 5.2 3.4v7c1 2 1 2 3 3 2.1 0 2.1 0 4-1 2.9-4.3 2.6-8 2-13-1.3-3.8-3-6.9-5.7-10a21.8 21.8 0 0 0-16-.9c-4.8 2-8.8 4.1-11.4 8.8a32 32 0 0 0 .7 23.3c4 9 10.6 14.7 19.4 18.8 16.7 6.2 34.4 6.3 52 7l1 25-8.6-.1a4024.2 4024.2 0 0 0-14.2-.1c-27-.5-27-.5-50.4 11.2-5.7 6-7.2 11.8-7.2 20v2c0 5.2 1.2 8 4.4 12 5 4.3 9.7 4.3 16 4.3a13 13 0 0 0 9-4.3c1.8-3.7 2.4-7 2.8-11.2l.2-3.2c.3-2.8.3-2.8-2-4.6l-5 1-2 11c-8 .6-8 .6-12.1-2-2.3-3.6-2.3-5.4-1.6-9.5a27 27 0 0 1 8.3-14.6c12.4-4.7 28.7-1.5 41.7-.9a21404.7 21404.7 0 0 0 20.7 1l-.5 1.8A30.8 30.8 0 0 0 88 336c3 .2 3 .2 5.6-1 4.4-1.3 8.2-2 12.4 0 1.8 2.5 2.9 4.8 4 7.7.9 2.4.9 2.4 3 4.3 3.6-.4 6.6-2.3 9.8-4l3-1.7 2.2-1.3.3 3.4A59.6 59.6 0 0 0 141 370c-3.8 4-7.7 7.3-12 10.7l-2 1.6-19 14.7a4161.4 4161.4 0 0 0-40.6 31.4l-14.7 11.4-12.2 9.4A261 261 0 0 0 26 461c5 7.3 11.1 13.3 17.4 19.5A4752.7 4752.7 0 0 1 54 491a181 181 0 0 0 21.1-20.9c3-3.4 6.3-6.5 9.5-9.7 2.7-2.7 5.1-5.5 7.6-8.4l8.6-8.8c2-2 3.8-4 5.6-6.1 3.5-4.1 7.4-7.9 11.2-11.7 2.7-2.7 5.1-5.5 7.6-8.4 2-2.3 4.1-4.4 6.3-6.5 3.3-3.2 6.3-6.6 9.3-10 3.1-3.6 6.3-7 9.5-10.4l1.9-2 6.8-7.1c5.7.2 10 3 14.7 5.8l2.5 1.5a495 495 0 0 1 15.1 9.4c16.1 10.6 16.1 10.6 34.3 16.6 8.6 1.5 8.6 1.5 11.4 5.5 1.4 3.4 2.3 6.6 3 10.2l.7 2.9c.5 2 1 4 1.3 6.1 7.6-.2 13-2 19-7a29.2 29.2 0 0 0 7-17.1c.9-4.4 1.3-6.3 4.7-9.3 3.4-2 6.8-3.8 10.3-5.6a66.1 66.1 0 0 0 23-28.2c3.9-7.8 8.8-16 17-19.8l6.6-1.5c5.2-1 8.3-1.9 11.4-6.5a23 23 0 0 0 1-16c-3-5-6-6.9-11.5-8.4-4.2-1-8.3-1.8-12.5-2.6l-1-3.8a68.1 68.1 0 0 0-35.2-44.2 43.8 43.8 0 0 0-29.7-4.4 23.2 23.2 0 0 0-15.1 12.2 49 49 0 0 0-.4 31.5c2 4.6 4 7.2 8.4 9.7 4.1.2 5.8-.9 9.2-3.3 2.8-2.5 2.8-2.5 4.4-5.3 2.2-3.8 5.3-5 9.4-6.4 5.5-.4 8.5-.4 13 3 1.8 2.7 1.8 2.7 3.3 5.9l1.5 3a48.5 48.5 0 0 1-1.3 36c-4.5 9.3-9.9 16-19.6 20-14.4 4.6-28.3 1.2-41.5-5.3a43.6 43.6 0 0 1-22.6-26.7c-1.2-4.3-2-8.6-2.9-13-1-3.4-2-4.8-4.9-6.9-3.3-.6-3.3-.6-6.9-.6-5.2 0-8.7-.6-13.1-3.4-1.4-2-1.4-2-2.3-4l-1-2a40.7 40.7 0 0 1-.4-25.8c2.4-4.5 2.4-4.5 4.7-6.2 3.4-.7 6.7-1.2 10.1-1.6 3.5-.6 5.6-1.1 8.2-3.5 2-3.6 3.3-7.2 4.6-11 3.9-11.6 8.6-21.4 19.8-27.3 5.3-2.5 10.8-4.6 16.3-6.6v-2.1c0-3.3.2-6.5.3-9.8v-3.3c.2-7.7 1-15.5 6.1-21.5 5.1-4.5 10.1-4.7 16.7-4.6A30 30 0 0 1 275 195c2.8 4.2 4 7.7 4.3 12.7.3 2.3.3 2.3 1.7 4.3 3 1.4 5.8 2.3 9 3.2a42 42 0 0 1 22.7 15.2c1.9 2.3 3 2.6 6 3 4.7-.6 6.6-3 9.7-6.3l1.6-1.7c3-2.7 3-2.7 4-6.4a52664.5 52664.5 0 0 0-51-24 2771 2771 0 0 1 11-29h-23l2.4-6.2a8447 8447 0 0 0 6.1-16l1.4-3.6c1.3-3.4 1.3-3.4 2.1-8.2h-24l.9-5.9a499.4 499.4 0 0 0 3.4-31.5 6247 6247 0 0 0 3.9-40c2.5-28.3 2.5-28.3 11.8-36.6 5-2.3 9.7-2.5 15-1 3.7 1.9 5.5 3 7.4 6.8.9 4.7 1 8.9.1 13.6-2.2 2.4-4.5 2.4-7.6 2.7C292 40 292 40 290 38c-2.1.3-2.1.3-4 1-1 2.2-1 2.2-1 5 2.4 4 4.4 6.1 8.8 7.6 6.1 1 10.5-1.4 15.4-4.8 4.7-4.7 7-9.1 7.3-15.8a23 23 0 0 0-8.1-16.8c-6-4.8-13.6-8-21.4-8.2-8.4 1.6-16 4.8-21.1 12a97.6 97.6 0 0 0-14.1 46.6l-.2 2c-1 19.8-.8 39.6-.6 59.4h-27l1-13 .2-9V91.4c0-16-.7-31.6-2.2-47.4l-.2-2.6c-1-11.7-3.1-21-11.8-29.4-9.6-7.6-24.8-9.4-35-2Z"/>
  <path fill="#261F21" d="M561.7 4.7c8.5 0 16.8.6 25.2 1.5a374.2 374.2 0 0 0 20.2 1.5 364 364 0 0 0 45.4-.9l26.2-1.6c15.7-1 15.7-1 21.3 1.8 2 2.5 2 3.8 1.9 7-1.1 3.7-1.7 4.1-4.9 6l-6.8 1.6c-10.5 2.1-10.5 2.1-18.1 9.1-14.4 30.2-11 78.5-10.2 111.3l.2 15.7a8721 8721 0 0 0 .3 24.3c.5 37 1.2 72.5 28.2 100.7 22.6 21.6 52.5 28.2 82.8 27.7 27-1 53-12.9 71.6-32.4 23-27.2 25.5-68.3 27.1-102.4l.2-2.6a1233.4 1233.4 0 0 0 1-61.4c0-14.3-.1-28.6-1.1-43l-.2-3c-.8-9.8-2.2-23-9.6-30.2C861 34 861 34 861 32l-1.7-.8a78.3 78.3 0 0 1-6.7-4 54.9 54.9 0 0 0-28-7.8c-3.2-.5-5-1.4-7.6-3.4-1-3.5-1.5-5.8 0-9.2 2.8-2.5 4.7-2 8.4-1.8l2.6.2 2.7.2 5.6.4c22 1.7 44.1 1.9 66.1 0 5.8-.6 11.6-1 17.5-1.1h3.4c2.7.3 2.7.3 4.6 1.6 1.8 2.8 1.4 5.4 1.1 8.7-3.3 3.3-8.5 3.4-13 4.1-6 1.2-10 3.3-14 7.9-1.6 2.5-1.6 2.5-2.4 5l-.9 2.4c-1.4 5.1-1.8 10-1.9 15.3v2a1478.1 1478.1 0 0 0-.2 20.9A3219.7 3219.7 0 0 1 895 155a950.6 950.6 0 0 1-2 40.5c-2.8 35.5-11.5 71.7-34.9 99.4l-1.5 1.9c-20 25-55.1 36.2-85.7 39.7-41.5 4.4-91 1-125.3-25.5-27.4-23-35.7-58-38.8-92.3a314.1 314.1 0 0 1-.8-26.8c0-15 .5-29.8 1-44.7.7-24.7 1.4-49.5.9-74.2l-.1-3c.5-20.4.5-20.4-7.7-38.1-9.1-7.5-21.1-9.9-32.4-12.2l-2.8-.6-2.6-.5A9.5 9.5 0 0 1 557 15c-.5-2.8-.2-5.1 0-8 2-2 2-2 4.7-2.3ZM1063 308.9c34-.7 63.3 9.4 92.4 26.5l2.4 1.4 2 1.3c3.8 1.6 7.2 1.2 11.2.9l.9-1.8c1.9-3.8 4.1-7.2 7.1-10.2 3.5-.5 5.3-.4 8.3 1.5 3.9 5.8 2.8 14.4 2.9 21.2a7937.6 7937.6 0 0 0 .1 16c.1 14 1.2 27.2 3.8 41 3.4 18.4 3.4 18.4-.7 24.8-3.4 2.1-5.6 1.4-9.4.5l-1.3-3.7A161.9 161.9 0 0 0 1105 338a105.3 105.3 0 0 0-78.5-6.2c-25.4 9.4-44.2 32.2-55.4 56C955 424 954.3 467.2 964 505l.6 2.5a153.8 153.8 0 0 0 38 69.4c18.4 19.4 45 32.6 71.8 34.3 29.4.8 56.8-10.8 80.6-27.2l2.4-1.6a156 156 0 0 0 26.2-25.8 25 25 0 0 1 5.4-4.6c3.8.3 3.8.3 7 1 1.8 8.4-1.7 14-6 21a162.2 162.2 0 0 1-100 66l-2.1.5c-41.6 8.5-87.2.6-122.9-22.5a139.7 139.7 0 0 1-41.2-42.8 177.3 177.3 0 0 1-20.5-129.3A208 208 0 0 1 919 401l1-2.2a159.6 159.6 0 0 1 57-64.8l1.8-1.2a170 170 0 0 1 84.2-24ZM1220 603h780v17h-780v-17Zm514-516v2.4a32520 32520 0 0 0-.4 141.5c0 10.9 0 10.9 3.4 21.1 3 2 5.8 2.1 9.2 2.5 3.8.5 3.8.5 5.8 2.5-.4 2.6-.4 2.6-1 5a63 63 0 0 1-15.6 3.4c-7.2 1-13.8 2.4-20.7 4.8-2.7.8-2.7.8-8.7.8v-15c-3.2 2-6.2 3.8-9.3 6a52 52 0 0 1-40.3 8.3A38.5 38.5 0 0 1 1637 259c-11.7-12-12.4-26-12.2-42a64.6 64.6 0 0 1 18.3-42 51 51 0 0 1 36-14.4h2.6c8.2 0 15.6 2 23.4 4.4a3024.3 3024.3 0 0 0 .3-35v-3c0-6-.6-11.5-3.3-17-3-2-5.2-2-8.7-2.5-3.3-.5-3.3-.5-5.3-2.5.4-2.6.4-2.6 1-5l1.7-.4c18.4-4 18.4-4 35.2-12 3.5-1.8 4.4-1.6 8.1-.6Zm-79.5 91.7a54.3 54.3 0 0 0-5.9 39.4A51 51 0 0 0 1669 250a30.7 30.7 0 0 0 24.1 2.8c5.5-1.9 9.6-3.8 12.9-8.8.3-2.5.3-2.5.3-5.4v-3.4l.1-3.7v-3.7a1741.2 1741.2 0 0 0 .3-27.7v-3.6c0-6.7-.7-10.9-5.2-16a38.3 38.3 0 0 0-26.5-12 25 25 0 0 0-20.5 10.2Zm326.2-92.3 2.3.6v2.3a45339 45339 0 0 0-.2 136.6c-.8 13.6-.8 13.6 3.6 25.8 2.5 2 5.2 2.3 8.3 3l3.6.7 2.7.6v6a95.1 95.1 0 0 1-16.6 3.4 102 102 0 0 0-20.8 4.8c-2.7.8-4.8 1-7.6.8-2-2-1.4-5.5-1.6-8l-.2-4-.2-3-2.2 1.8A58.5 58.5 0 0 1 1909 271a43 43 0 0 1-26.2-15.5 60.7 60.7 0 0 1-8.5-43.7c2.5-14.7 9-27.4 19.7-37.8l1.8-1.8a46 46 0 0 1 32.8-11.6h2.6c7.1.1 13.4 1.5 20.1 3.6l2.7.8c2-2 1.2-6.4 1.2-9.2v-2.5a1814 1814 0 0 0 0-13.4c1-15.5 1-15.5-4.1-29.2-2.5-2-4.1-2.4-7.3-2.9-4.7-.7-4.7-.7-5.8-1.8v-5c3.3-2 6.5-2.6 10.2-3.2a108.8 108.8 0 0 0 18.3-5.5c3.2-1.2 5.8-2.5 8.7-4.6 2.8-1.7 2.8-1.7 5.5-1.3Zm-76 91.2a53.2 53.2 0 0 0-6.6 40.3 49 49 0 0 0 20.5 31.8 30 30 0 0 0 22.4 3.6c5.9-1.8 10.3-3.3 14-8.3 1-3 1.1-5 1.2-8.1v-10.1a3220.8 3220.8 0 0 0 .1-25.7v-3.4c0-7.4-1-12.7-6.2-18.2-8-7.7-18-11-29-10.8-6.7.7-12.1 3.7-16.5 9ZM1498 356l1 93 7-8a47 47 0 0 1 36-11 39 39 0 0 1 21 10l2 2a51.2 51.2 0 0 1 13.3 35.9c-.6 18.7-6.5 37-20.3 50.1-13.9 11.8-29.5 14-47 13-7.8-1-14-3.7-20.6-7.8-2.6-1.5-2.6-1.5-6.4-1.2-2.2 2.5-4 5.1-5.9 7.8-2.1 2.2-2.1 2.2-4.7 2.3l-2.4-.1v-2.4a31277 31277 0 0 0 .4-138.7c0-7.6 0-14-3.4-20.9-3.2-2.6-8-3-12-4-.2-2.4-.2-2.4 0-5 3.3-2.2 5.8-2.7 9.7-3.6a98.2 98.2 0 0 0 26.5-11.7c1.8-.7 1.8-.7 5.8.3Zm1.9 100.4c-3 4.7-2.5 10-2.4 15.3v3.4a872.6 872.6 0 0 0 0 18v10.2c0 8.9 2.5 15.5 8.6 22a32.8 32.8 0 0 0 24.7 8.2c7-1 11.7-4.1 16.2-9.5a43.4 43.4 0 0 0 8.4-28.4v-2.8a53.5 53.5 0 0 0-15-37.6 32 32 0 0 0-23-8.4c-7.4.7-12.7 4.1-17.5 9.6ZM972 156l5 1v21c4.8-3.5 4.8-3.5 7.3-7a33.1 33.1 0 0 1 17.7-10c3.6-.3 7.1-.4 10.8-.4h2.8a34 34 0 0 1 24.5 9.1c9.4 11.4 11.2 24.7 11.2 39a29429 29429 0 0 0 .3 27v3c0 6.1.8 10.8 3.4 16.3 2 1.7 2 1.7 4.3 2.4l2.3.9 2.4.7 2.1.7 4.9 1.3c.7 1.8.7 1.8 1 4-1.1 1.6-1.1 1.6-3 3-2.8.3-2.8.3-6.1.3l-3.3-.1c-2.7-.1-5.3-.4-8-.7-4.6-.5-9.1-.7-13.8-.6h-2.5c-7.1 0-14.2.4-21.3 1.1l-2-4c2.1-2.3 4-4 6.6-5.5 2.7-1.7 3.4-2.5 4.4-5.5a90.7 90.7 0 0 0 1.2-18 1661.2 1661.2 0 0 0 0-12.8c.2-16.8.2-16.8-5-32.7l-1.5-3c-3.4-5-8-7.6-13.7-9.5a27 27 0 0 0-19 4c-3.8 3.1-6.6 6-7.6 11a92 92 0 0 0-.2 10.5v3.9a527.7 527.7 0 0 0 .2 18.4v13.7c.2 6.9.8 11.5 4.8 17.2 2.8 2 5.7 2.6 9 3.4 6.7 1.8 6.7 1.8 7.8 2.9v5c-1 1-1 1-3.8 1.1h-7.3a90 90 0 0 1-8.2-.6c-5.2-.6-10.3-.6-15.5-.6h-2.9c-6.4 0-12.7.3-19 1-2.3.1-2.3.1-4.3-.9v-5l1.9-1 2.5-1.2 2.4-1.2c2.8-2 3.2-3.4 4.2-6.6.3-3.2.3-3.2.3-6.7v-2a902 902 0 0 0 0-20.5 2095.6 2095.6 0 0 1 0-32.2V187a13 13 0 0 0-2.3-7c-3.3-1.6-7-1.5-10.6-1.7-2.4-.3-2.4-.3-3.4-1.3-.4-2.4-.4-2.4 0-5 4.5-3.6 10.1-4.5 15.6-5.8 12.7-3 12.7-3 23.4-10.2ZM558 603h343v17H558v-17Zm1281-435.2c6 4.4 9 9.2 11 16.2.2 3.1.2 3.1.2 6.5v5.8a830.8 830.8 0 0 0-.2 19.8 3442.2 3442.2 0 0 0-.2 21.7v7.2c.2 3.1.7 5.2 2.2 8 4.7 3.1 9.6 2.4 15 1.5l2-.5c.8 1.7.8 1.7 1 4a39.3 39.3 0 0 1-22.9 13c-5.6.3-9.7-1-14.3-4.3a47.3 47.3 0 0 1-6.8-8.7l-3.1 1.6a149.6 149.6 0 0 1-25.8 11 39 39 0 0 1-22.4-1.4c-5.6-3.8-9-8.7-10.7-15.2-1-10.5.3-19.7 7-28a52 52 0 0 1 27.2-14l3-.8c7.3-1.9 14.5-3.6 21.8-5.2 1.5-10.2 1.3-19.8-4.9-28.6-4.3-5-8.2-7-14.8-7.5-3.7.1-6 1.3-9.3 3.1-1.8 3.6-1.2 7.9-1.3 11.8-.7 3.2-.7 3.2-3 5.5a30 30 0 0 1-18.7 3.7c-2.5-1-2.5-1-4-3-.2-3.1.3-6 1-9l.4-2.1c1.8-6.4 6-9.7 11.6-12.9 18.3-8.4 41.3-10 59 .8Zm-41 57.2c-5 6-6.9 11.4-6.4 19.2.6 4.3 1.6 6.4 4.4 9.8 4.7 3 8.4 3.4 13.7 2.6 4.8-1.2 8.8-3 12.2-6.6a24 24 0 0 0 2.2-12.5v-18.9c.2-2.5.2-2.5-1.1-3.6-9-1.2-18.8 3.7-25 10Z"/>
  <path fill="#261F21" d="M1257.3 439.3c7 7 8.7 15.2 9 24.8l-.1 5.5v3c0 6.3-.3 12.6-.5 18.8v2.2l-.5 10.5c-.4 9.7-.4 9.7 1.8 18.9 4.7 3.1 9.6 2.4 15 1.5l2-.5 1 5a41.7 41.7 0 0 1-24.3 12.3c-7.1-.5-10.4-2.7-15.1-7.9-3.6-4-3.6-4-3.6-6.4l-3.1 1.8c-14.1 8.1-28.6 15.8-45.4 11.6a25.2 25.2 0 0 1-12.9-13.6 42 42 0 0 1 5.5-30.5c10.4-13 32.2-16.8 47.9-19.3h5c.5-11.4.8-22-6.4-31.5a18 18 0 0 0-13.2-5.9c-3.8.2-6.3.9-9.4 3.4-1.4 2.8-1.1 5.3-1.2 8.4-.4 6.2-.4 6.2-3.7 9.4a32.2 32.2 0 0 1-13.2 2.4h-3.7c-3.2-.2-3.2-.2-5.2-2.2a28.2 28.2 0 0 1 5.6-18.9c17.5-16.8 49.6-16.3 68.7-2.8ZM1212 497a25.4 25.4 0 0 0-5 16 22 22 0 0 0 5.2 11.5c5.6 3 10 3 16 1.3 5.6-1.9 5.6-1.9 9.8-5.8a90.4 90.4 0 0 0 2-34c-1.2-1.4-1.2-1.4-4.4-1.3-9.7.2-17.3 5.3-23.6 12.3Zm457.8-57.8 2.2 1.8 2 1.6a42.8 42.8 0 0 1 14.2 26.5l-.2 5.9c-3 3-6.7 2.3-10.8 2.4h-2.7l-8.7.2-11.8.2h-2.9c-10.4.2-20.7.7-31.1 1.2-.3 13 2.5 23.8 11 34a35 35 0 0 0 26.6 10.3c8.3-.8 15.8-4.1 22-9.7 1.4-1.3 2.9-2.4 4.4-3.6 2.4.2 2.4.2 4 1 .6 1.8.6 1.8 1 4-5.6 11.6-19.3 20.2-31 24.4a55.2 55.2 0 0 1-40.5-3.7A52.6 52.6 0 0 1 1594 503l-.6-2.1c-2.7-18 .1-35.5 10.5-50.7a51.6 51.6 0 0 1 29.9-20c13.3-1.6 25.2.7 36 9Zm-45.6 6.1c-4.5 7.3-7 14-6.2 22.7 3 2 3.7 2.3 7.1 2.2h7.8l8.1-.2h2.4a368 368 0 0 0 10.4-.5c3.4-.5 4.9-1 7.2-3.5 1.4-4.9 0-9.6-2-14.1a30.4 30.4 0 0 0-15-13.9c-8.3-1.3-14.6.6-19.8 7.3Zm-317.8-284.7h2.5c13.5.4 24.3 6.7 33.5 16.4a38 38 0 0 1 9.6 29c-1.8 1.8-4.9 1.2-7.4 1.3h-2a2107.3 2107.3 0 0 1-23.2.7l-12.3.3-24.1.7.9 7.1.2 2a42 42 0 0 0 14 27.6c8.7 6 16.3 8.5 26.9 7.3a38.8 38.8 0 0 0 21.5-11.7l1.5-1.3c2.7.3 2.7.3 5 1-.5 7.4-3.6 10.5-8.8 15.3A60.2 60.2 0 0 1 1319 270l-2.3.6a56.5 56.5 0 0 1-41.6-8.9 54.5 54.5 0 0 1-18.5-34.6A64 64 0 0 1 1269 179a47 47 0 0 1 37.4-18.4Zm-19 16.3a32.4 32.4 0 0 0-5.4 21.1c1.8 2.3 1.8 2.3 4.5 2.2h14c12.8.6 12.8.6 24.5-3.2 2-5.6.4-10.8-2-16-4-6-9-10.9-16-13-8.2-1.2-14.7 2.6-19.7 8.9ZM1409 157c1.4 5 .9 9.7.6 14.8l-.2 2.7-.4 6.5c3-3 6-6 8.6-9.4a36.5 36.5 0 0 1 19-12.4A36.5 36.5 0 0 1 1457 173c1.3 3.4 1.1 4.7-.3 8.2l-1.9 3.4-1.8 3.3c-4.3 6.7-4.3 6.7-8.8 7.7-4-.8-5.5-2.4-8.4-5-3.8-3.3-8-4.7-12.9-5-4.5.5-6.5 1.4-9.9 4.4-4.2 6.6-4.2 13.9-4.2 21.4a3063181529.4 3063181529.4 0 0 0 0 15c-.6 15.7-.6 15.7 6.5 29.2 4.5 3.7 10.2 5 15.7 6.4v6h-5.3l-3 .1c-2.9 0-5.6-.3-8.4-.6-8.6-.8-17.3-.6-26-.6a10110.7 10110.7 0 0 1-18.3.1l-1-5 2.2-1.3c5.4-3.3 8.1-5.4 9.8-11.7.3-3.2.3-3.2.3-6.6v-3.9a5771.5 5771.5 0 0 0 0-38 1009.2 1009.2 0 0 1 0-10.2V187a13 13 0 0 0-2.3-6.9c-3.8-2-8-2.9-12-4v-5l2-.5c11.6-3.2 22.8-6.2 33.4-12.2 2.6-1.3 2.6-1.3 6.6-1.3Zm-80 269 3 2c.3 2.2.3 2.2.3 5v3l-.1 3.1v3.2l-.2 7.7c2.6-2.5 5-5 7.2-7.8A47.5 47.5 0 0 1 1356 429c9 0 15.6 6.3 21.7 12.3 1.5 2 2 3.2 2.3 5.7a76 76 0 0 1-3.7 7.6l-1 2c-2 3.6-3.6 6.4-7.3 8.4-5.3.1-7.7-2.2-11.4-5.6-4.2-3.6-8.8-3.9-14.2-3.8-4.1.7-5.6 2.2-8.4 5.4-2.5 5.5-2.3 11-2.3 17v3.2a1440.7 1440.7 0 0 0-.2 23.5v3c0 7.5 1.5 13 6.5 18.6 4.7 2.7 9.8 4.1 15 5.7v6c-6.1 0-12.2.2-18.3-.5-11.6-1.2-23.3-.6-35 .2-5.5.4-5.5.4-7.7-.7v-6l1.6-.7c3.8-1.6 6-2.7 8.3-6.2 1.7-5 2.2-9.7 2.2-15v-11a3772.4 3772.4 0 0 0 .1-18.1v-13.5c0-5.9 0-11-2.2-16.5-3.2-2.6-8-3-12-4v-5l13.4-4.4c9-2.9 17.3-6 25.6-10.6Zm-188-264 4.7.4c9.8 1 19.7.7 29.5.7a12985.9 12985.9 0 0 1 20.8-.1l1 5-1.8.6c-6.5 2-6.5 2-12.2 5.4-1.3 2.8-1 4-.1 7l1.5 3.5.8 2c3.7 8.9 7.7 17.6 11.7 26.4a18177.7 18177.7 0 0 1 8.1 18.1h4c6-7 9.8-16.4 13.8-24.6l1.3-3c7-13.7 7-13.7 7.3-28.7-3.3-4-9.5-5.2-14.4-6.7v-5a76 76 0 0 1 18.8-.6c7.4.4 14.8.7 22.2.6v5c-2.2 1.5-2.2 1.5-5 3-5.3 4.3-7.7 9.8-10.6 15.9a2410808900.2 2410808900.2 0 0 0-10.5 21.7C1207 261 1207 261 1198 270c-2.5-.1-2.5-.1-5-1-1.3-1.7-1.3-1.7-2.4-4l-1.2-2.6-1.3-2.9-1.4-3-3.9-8.6-4.4-9.8a6375 6375 0 0 1-18.4-40.3l-1.5-3.4c-2.6-5.6-5.3-11-8.1-16.5l-1.6-3.2c-2.7-4-5.3-5.2-9.8-6.7.9-4.9.9-4.9 2-6Zm365.7-1.3h3c17.2.2 17.2.2 22.3 5.3 1.4 4.8 1.4 9.8 1.6 14.8l.2 2.6.1 2.5.1 2.3c0 1.8 0 1.8-1 2.8-2.3.5-2.3.5-5 0a50 50 0 0 1-4.3-6.6 41 41 0 0 0-15.1-15.8 22 22 0 0 0-17.6 2.4h-2a21 21 0 0 0-3 12c1.3 3.3 1.3 3.3 3 6v2l2.2.9c4.6 1.8 9 4 13.6 6l3 1.3c14 6.4 23.7 11.1 29.5 26.2a43 43 0 0 1-4.7 30c-1.4 2-2.9 3.8-4.6 5.6l-1.6 1.7a35 35 0 0 1-25.3 9c-8.6-.4-29-1.6-35.1-7.7l-.1-7.5v-2.3a1564.6 1564.6 0 0 1 0-16.7v-2.2c0-5.2 0-5.2 1.1-6.3h5l.8 2.2c7.3 18.7 7.3 18.7 22.1 31.2 7.7 1.4 13.6 1.1 20.1-3.4 3.7-3.9 4.3-7.6 4.2-13a20 20 0 0 0-3.2-8l-1-3c-1.8-1.1-1.8-1.1-4-2l-1.9-.9-2-.8-14.1-6.3-2.1-1c-9.6-4.3-18.2-8.9-22.2-19.2-2.1-8.9-2-19.4 2-27.7 8-12.6 21.8-16.5 36-16.4ZM703 417v1.7a11560 11560 0 0 0 .5 95v3c0 5.3 0 5.3 2.3 9.9 3 1.9 5.7 2.1 9.2 2.4v5c-1.5 1.5-3 1.4-5 1.7l-2.5.4-5.3.7c-4.6.7-8.8 1.7-13.2 3.2h-5v-10l-3.8 2.8A39.4 39.4 0 0 1 652 540a29 29 0 0 1-18.8-13.3A45.4 45.4 0 0 1 631 493a41 41 0 0 1 20.2-24 45.8 45.8 0 0 1 31.8-.1c1.7-3.4 1.1-7.2 1.1-11v-2.5c.5-11.8.5-11.8-3.1-22.5-2.2-1.1-2.2-1.1-4.6-1.8l-2.5-.7-1.9-.5 1-4 3.1-.7A71.6 71.6 0 0 0 697 418c2-1 2-1 6-1Zm-53.4 61.4a34 34 0 0 0-4 25.8c3 10.4 7.2 17 16.4 22.8 6.8 2.3 13 1.5 19.4-1.6 3-2.6 3.6-5.8 3.9-9.7v-5.8a607.4 607.4 0 0 0 0-14.7v-3.8c-.5-5.5-1.6-9.4-5.9-13-5-4.2-10-6-16.5-6.8-5.3.8-9.5 3-13.3 6.8ZM1430 426l3 1a778740142.7 778740142.7 0 0 0 .6 82.9v2.5c0 5 .7 8.3 3.4 12.6 4.3 3.8 8.3 4.6 13.8 5.3 2.2.7 2.2.7 3.5 2.8l.7 1.9c-1 1.5-1 1.5-3 3-3.3.3-3.3.3-7.2.3l-3.8-.1c-3.4-.2-6.6-.5-10-1-3.5-.4-7-.3-10.5-.3h-2.3c-7.8 0-15.5.5-23.2 1.1l-1-5 5.2-2.6c3.1-2.4 4.5-5.4 5.5-9.2 1.8-12.2 1.4-24.3 1.1-36.6a1735.3 1735.3 0 0 1-.3-18.7v-3.4l-.1-3.2-.1-2.8a13 13 0 0 0-2.3-6.5c-2.9-1-2.9-1-6.1-1.3l-3.3-.4-2.6-.3v-6c4.5-1.8 9-3.3 13.7-4.7 9-2.7 17.4-6 25.3-11.3Zm-307-268v3.1a13504.2 13504.2 0 0 0-.2 64.3c-.5 15.2-.5 15.2 3.8 29.5 4.3 3.7 9.5 4.6 14.9 6 2.5 1.1 2.5 1.1 3.4 3.2l.1 1.9c-3.6 2.4-5.3 2.2-9.6 2.2h-3.6a104 104 0 0 1-8.2-.7c-4.7-.6-9.5-.7-14.3-.6h-2.6c-7.3 0-14.5.4-21.7 1.1l-1-5 1.6-1 2.2-1.5 2.2-1.4c6.4-6.6 5.4-15.9 5.4-24.5a3328.2 3328.2 0 0 1 0-36.5v-9a21 21 0 0 0-3.4-9.1c-2.1-.9-2.1-.9-4.5-.8-3.6 0-4.4-.1-7.5-2.2l1-5a285 285 0 0 1 12.7-4 89.9 89.9 0 0 0 22.6-9.7c3-1.5 3.7-1.3 6.7-.3Zm473 0v3.2a13835.1 13835.1 0 0 0-.2 65c-1 15.7-1 15.7 4.6 29.7 3.8 2.8 8.4 3.4 13 4.2 2.6.9 2.6.9 4 3l.6 1.9c-1 1.5-1 1.5-3 3-3 .3-3 .3-6.6.3l-3.6-.1c-2.7-.1-5.4-.4-8.2-.7-4.7-.6-9.5-.7-14.3-.6h-2.6c-7.3 0-14.5.4-21.7 1.1l-1-5 1.6-1 2.2-1.4 2.2-1.4c6.2-6.7 5.4-16.6 5.4-25.2a3104.2 3104.2 0 0 1 0-31.3v-5.8c0-8.9 0-8.9-3.4-16.9-3-1.3-3-1.3-6.2-1.4l-3.3-.4-2.5-.2v-5c2.3-2.3 3.4-2.5 6.5-3.2l2.7-.7 3-.7c8-2 15.1-4.6 22.2-9 3.4-2 4.9-2.6 8.6-1.4ZM821 416v3.9a21041.5 21041.5 0 0 0-.2 89.6v2.9c0 5.5.5 10.3 2.2 15.6 3.5 3 7.6 3.9 12 5v5h-41l-1-4 2.9-1.8c3.5-2.5 3.5-2.5 5.1-6.2l.3-8.5v-2.7a1559.3 1559.3 0 0 0 0-26.9 3620.5 3620.5 0 0 1 0-42.2v-2.5A22 22 0 0 0 799 432c-2-1.2-2-1.2-4.1-1.8l-2.2-.7-1.7-.5c.3-2 .3-2 1-4 2.7-1 5.2-1.8 8-2.5 7.1-1.9 7.1-1.9 13.8-4.8 3.2-1.7 3.2-1.7 7.2-1.7Zm-46 56a30.8 30.8 0 0 1 12.3 19.4c0 2.2 0 2.2-.3 5.6-1.6 1.6-3 1.2-5.2 1.2H779l-3 .1h-3a4439.8 4439.8 0 0 1-32 .7l.4 4.8.3 2.7c.9 7.2 5 13 10.6 17.3 5.7 3.9 10.9 3.8 17.7 3.2 4.5-1 7.8-2.7 11.3-5.8 2.7-2.2 2.7-2.2 5-2l1.7.8c-.6 6-4 8.2-8.3 12a40.5 40.5 0 0 1-10.7 6l-3.2 1.3c-9.7 1.9-19 1.4-27.8-3.3-8-5.4-13-12.9-15.5-22.2a44 44 0 0 1 4.8-31c1.5-2.1 3-4 4.7-5.8l1.7-1.9A32.3 32.3 0 0 1 775 472Zm-32.3 5.8A22.4 22.4 0 0 0 740 492c4.8 1.6 9.5 1 14.5.8l3.2-.1 3-.2h2.9c2.8-.6 3.7-1.2 5.4-3.5a22 22 0 0 0-3.8-11.9c-3.7-3.5-6-5-11.1-5.5-5 .2-8.4 2-11.4 6.2ZM1879 762h3a366918083 366918083 0 0 0 13.5 31.8l1 2.7c2.3 5 2.3 5 6.6 8.2 3 .6 3 .6 5.9-1.7 1.7-5 1.2-10.2 1.2-15.4v-13.5c-.2-3-.5-4.7-2.2-7.1-2.5-1.3-2.5-1.3-5-2v-3c5.4-1 11-2 15.8 1.2 3.7 3.4 6.8 7.2 9.8 11 1.7 2.2 3.5 4.2 5.3 6.2l4.8 5.6 1.6 2c.5.5 1 1 1.4 1.7 1.3 1.4 1.3 1.4 3.3 2.3l-.3-10.2V779c-.3-7-.3-7-3.7-12.9-2.6-.9-2.6-.9-5-1v-3h18v3l-2 .7c-2.2 1.1-2.2 1.1-2.6 3.4l-.1 2.5-.2 3-.1 3.4-.2 3.7a1156.2 1156.2 0 0 0-.8 26.3c-7-3.4-12-9.9-17-15.7a444 444 0 0 0-9.3-10.2c-2.1-2.3-4-4.5-5.7-7.1v15.8l-.1 3.4v3.2c0 2.7 0 2.7 1.1 5.6 3 1.2 3 1.2 6 2v3h-38l2-4c1-2.2 1.2-3.5.4-5.8l-2.4-5.2h-15l-1.5 4.4-.8 2.4c-.8 2.1-.8 2.1-.7 4.2l6 1v3h-16v-3l1.8-1.8c2.6-2.6 3.8-5.2 5.3-8.6l.8-1.8a912.1 912.1 0 0 0 6-13.6l.7-1.9c2.3-5.2 4.8-10.3 7.4-15.3Zm-2 12-2.5 5.9-1.4 3.3c-1.2 2.6-1.2 2.6-1.1 4.8h12l-6-14h-1Zm-69.1-12.3c2.1.3 2.1.3 3.6 2 1.8 2.7 3 5.5 4.4 8.6l1.6 3.6a7897.9 7897.9 0 0 1 4.9 11.2l1.4 3.4c1 2.4 1 2.4 2.2 3.5l1.3-2.7a4848.7 4848.7 0 0 1 9.4-20.5l1-2c1.2-2.7 2.2-4.7 4.3-6.8 2.6-.2 2.6-.2 5.6-.1h3l2.4.1v3l-2 .9c-2.2 1-2.2 1-3 3.1-.4 7.7 0 15.4.4 23.1l.2 2.2c.2 3.3.4 6.5 1.4 9.7l6 1-1 3h-20c1-3 1-3 2.6-4.4 1.6-1.5 1.6-1.5 1.6-4l-.1-2.7-.2-2.7-.2-3.4-.7-10.8-13 27h-4l-12-26-.7 7.6-.2 2.3c-.4 5.2.3 8.5 2.9 13.1l3 1v3h-16v-3l4-1c1.2-6.3 1.4-12.6 1.7-19l.2-3.6.1-3.4.2-3.1c-.2-3.1-.7-5.2-2.2-7.9-3-1.4-3-1.4-6-2v-2l11.9-1.3ZM286 763a52 52 0 0 1 4 7.3l1 2.1a440.1 440.1 0 0 1 4.8 10.5c4.2 8.8 4.2 8.8 4.2 11.1h2l.8-2.6c1.2-3.3 2.5-6.3 4-9.4l1.6-3.4 1.7-3.4 1.6-3.5c4.2-8.6 4.2-8.6 5.3-9.7a130.8 130.8 0 0 1 9.4 0h2.6v3l-5 2a107.2 107.2 0 0 0-.6 23.2l.2 2.8v2.6c.4 2.7 1.1 4.9 2.4 7.4 2.5 1.4 2.5 1.4 5 2v3h-20v-3l3-2c.4-2.5.4-2.5.3-5.4l-.1-3c-.3-4.9-.8-9.7-1.2-14.6l-13 28h-3l-5.4-11.2-1.5-3.2-1.5-3-1.4-3-3.2-7.6-.2 10.3v5.8l-.1 2.6c.4 2.8 1.1 3.6 3.3 5.3l3 2v2h-17c1-3 1-3 4-5 1.3-3.8 1.4-7.5 1.6-11.5v-2.4c1.4-11.5 1.4-11.5-1.6-22.1-2.5-1.3-2.5-1.3-5-2v-2l4.2-.6 2.3-.3c3-.1 4.8-.2 7.5.9Zm1405-1h20v3l-3 1-1 15h20l-1-15-6-1v-3h20v3l-3 1v38l6 1v3h-21v-3l4-2 1-17h-20l1 18 6 1v3h-21v-3l3-1c1.5-3 1.2-6.2 1.2-9.6v-2.2a1433.8 1433.8 0 0 0 0-16.6v-2.2c.2-4.2.2-4.2-2.2-7.4l-4-1v-3Z"/>
  <path d="M1345 670h15v3h-3l-.1 12.1v3.5l-.1 3.3v3.1c.2 3.3 1 6 2.2 9a34 34 0 0 0 9 1c3.6-2.6 5.2-4.7 6-9 .3-3.5.3-7 .3-10.6l.1-2.9v-5.3c-.6-3-2-3.6-4.4-5.2v-2a47.3 47.3 0 0 1 22 0c5.5 4.3 8.7 10.6 11.8 16.7 1.5 3 3.3 5.6 5.2 8.3v-11.3l.1-2.5V679c0-2.2 0-2.2-1.1-5-2-1.2-2-1.2-4-2v-2h12v3h-2l-1 36c-3 0-3 0-4.3-1.3l-1.4-1.8-1.5-2-1.5-2.3-1.7-2.2c-4-5.4-7.8-10.9-11.6-16.4v13.4l-.1 2.8v2.6c0 2.3 0 2.3 1.1 4.2l3 1v3h-12v-3l2-1c1.7-5 1.2-10.2 1.2-15.4v-9.9c-.2-2.8-.7-4.4-2.2-6.7-2-.9-2-.9-4-1-1.6 1.6-1.2 3.4-1.2 5.6l-.1 2.9-.1 6c-.3 7.7-1.1 14.4-6.1 20.6-4.3 3-9.5 2.7-14.5 1.9-3.9-1.8-5.5-2.8-7.1-6.8a39 39 0 0 1-1.3-9.5l-.1-3.5-.1-3.6-.1-3.7-.3-8.9-4-2v-2Zm259 0h3l1 3a3008.3 3008.3 0 0 0 8 23.3l.8 2.2c1.7 4.9 1.7 4.9 5.2 8.5h3v-33l-4-1v-3a28 28 0 0 1 10 0c3 2.4 4.9 5.4 6.9 8.6a693962298.7 693962298.7 0 0 0 6.1 9.4l4 6c1.2-9.6 1.2-9.6 0-19-2-1.8-2-1.8-4-3v-2h12v3l-2 1c-1.2 3.5-1.2 6.8-1.3 10.5v2.2a2499 2499 0 0 0-.7 23.3c-3.5-1.2-4-2-6-5l-1.6-2.5-1.7-2.6A323 323 0 0 0 1630 682l-.1 8.6v2.5a26 26 0 0 0 2.1 12.9l3 1v3h-26c0-3 0-3 1-4a84 84 0 0 0-.4-5l-.6-5-10 1c-1.2 2.6-2 4.4-1.8 7.3l.8 1.7 3 1v3h-12v-3l1.3-1.3c2.4-2.4 3-5 4.1-8.2l.7-1.9a986.2 986.2 0 0 0 5.8-17.4l3.1-8.2Zm-1 12-3 10h7l-.9-4.4-.5-2.5-.6-2.1-2-1Zm-339-12 3 1a81.8 81.8 0 0 1 4.3 12.1 1156.7 1156.7 0 0 1 5.4 16.6c.7 2.3.7 2.3 2.3 5.3 2.6 1 2.6 1 5 1 1.7-5.2 1.2-10.6 1.2-16v-10.3c0-3 0-3-2.2-5.7l-3-1v-3a31 31 0 0 1 11 0c3.1 2.5 5 5.7 7 9.1l1.6 2.6 3 5c1.7 2.8 3.5 5.6 5.4 8.3v-11.3l.1-2.5V679c0-2.2 0-2.2-1.1-5-2-1.2-2-1.2-4-2v-2h12v3h-2l-1 36c-3 0-3 0-4.3-1.3l-1.4-1.8-1.5-2-1.5-2.3-1.7-2.2c-4-5.4-7.8-10.9-11.6-16.4v13.4l-.1 2.8v2.6c0 2.3 0 2.3 1.1 4.2l3 1v3h-26v-3h2c-.5-3.5-.9-6.7-2-10l-10-1-1 10 3 1v3h-11a53 53 0 0 1 3.1-9 293.3 293.3 0 0 0 8.3-22.7l.8-2.2c.8-2.1 1.8-4 2.8-6.1Zm-1 12-4 10h8l-3-10h-1Z"/>
  <path fill="#261F21" d="m1405 762 13.6-.2h7.7l3.4-.1c4.8.5 8.1 2.2 11.7 5.4 2.2 4 2.4 7.4 1.6 11.9-1.9 3-1.9 3-4 5l-2 2a505.9 505.9 0 0 0 5.3 9.5c2 3.6 3 5.2 7 7l2.7.5v3c-3.7 2.3-6.7 2.5-11 2-5-4.1-7.6-9.2-10.5-14.8-2-3.5-2.9-5-6.8-6.2h-2.7l.4 7.4v2c.2 4.3.2 4.3 2.6 7.6l4 1v3h-20v-3l3-1v-36l-6-3v-3Zm16 4v17c6.6.6 6.6.6 12.6-1.6 1.8-3.1 1.9-4.9 1.4-8.4-1.5-3.7-3-5.2-6.6-6.8-3.8-1.5-3.8-1.5-7.4-.2Zm-387-4 13.6-.2h7.7l3.4-.1c4.8.5 8.1 2.2 11.7 5.4 2.2 4 2.4 7.4 1.6 11.9-1.9 3-1.9 3-4 5l-2 2a505.9 505.9 0 0 0 5.3 9.5c2 3.6 3 5.2 7 7l2.7.5v3c-3.4 2.1-6 2.3-10 2-3.7-1.4-5-3.2-7-6.6l-1.5-2.7a296.3 296.3 0 0 1-4-7.3l-1-1.9c-2.2-2.2-4.5-2.2-7.5-2.5l.4 6.8.2 3.8c.2 3.5.2 3.5 2.4 6.4 2 .7 2 .7 4 1v3h-20l1-3 2-1v-36l-6-3v-3Zm16 5a73 73 0 0 0-.2 8.1v2.3l.2 5.6a215 215 0 0 0 8.3.4c2.8-.1 2.8-.1 4.5-2.2 1.7-3 1.7-4.8 1.2-8.2-2-4.2-3.2-5.7-7.6-7.5-3.5-1-3.5-1-6.4 1.5Zm402-5 13-.3h3.7c7.3-.1 12.2.2 18.3 4.3a13 13 0 0 1 3 10.1c-1 4-1.7 5.5-5 7.9h-2a2671.7 2671.7 0 0 0 4.4 8.9c2.8 6.1 2.8 6.1 8.3 9.4l3.3.7c-1 3-1 3-2.7 4.2-3 1-5 1.3-8.3.8-5.8-4-8-8.4-10.8-14.8-1-2.3-1-2.3-3.2-5.2-3.6-1-3.6-1-7-1a1593 1593 0 0 0 .7 9.9c.2 3.1.2 3.1 1.3 6.1a26 26 0 0 0 5 2v3h-20c1-3 1-3 2.5-4.2 2.4-2.8 1.9-5.4 1.9-9v-2.1a459.6 459.6 0 0 0 0-11.2c.3-7.6.3-7.6-2.4-14.5-2.6-1.2-2.6-1.2-5-2l1-3Zm15 5c-.2 2.6-.3 5-.3 7.6v2c-.2 3.5-.2 3.5 1.3 6.4l4.9.3h2.7c2.4-.1 2.4-.1 4.2-1.6 2-3 1.8-6.3 1.2-9.7-2-3.8-3.5-4.8-7.6-6.4-3.5-1-3.5-1-6.4 1.4Zm-625-5 13-.3h3.7c7.3-.1 12.2.2 18.3 4.3a13 13 0 0 1 3 10.1c-1 4-1.7 5.5-5 7.9h-2a2671.7 2671.7 0 0 0 4.4 8.9c2.8 6.1 2.8 6.1 8.3 9.4l3.3.7c-1 3-1 3-2.7 4.2-3 1-5 1.3-8.3.8-5.8-4-8-8.4-10.8-14.8-1-2.3-1-2.3-3.2-5.2-3.6-1-3.6-1-7-1l.4 6.3.3 3.6c.2 3.1.2 3.1 1.3 6.1a26 26 0 0 0 5 2v3h-20c1-3 1-3 2.5-4.2 2.4-2.8 1.9-5.4 1.9-9v-2.1a459.6 459.6 0 0 0 0-11.2c.3-7.6.3-7.6-2.4-14.5-2.6-1.2-2.6-1.2-5-2l1-3Zm15 5c-.2 2.6-.3 5-.3 7.6v2c-.2 3.5-.2 3.5 1.3 6.4l4.9.3h2.7c2.4-.1 2.4-.1 4.2-1.6 2-3 1.8-6.3 1.2-9.7-2-3.8-3.5-4.8-7.6-6.4-3.5-1-3.5-1-6.4 1.4Zm422-1 2.9 1.8c4.6 4.8 5.3 9.2 5.5 15.6a23.8 23.8 0 0 1-9.4 19.6l-1.9 1.7c-6.8 4.2-14.3 3.5-22 3.4h-3.6l-8.5-.1v-3l3-2c.3-2.8.3-5.3.3-8v-2.5a913.4 913.4 0 0 0-.2-12.8l-.1-12.7-7-2v-2c32.2-2.9 32.2-2.9 41 3Zm-23.7.1c-2 2.8-1.7 5.1-1.7 8.6v2a398 398 0 0 0 0 10.3c-.4 9.2-.4 9.2 3.4 17 5.2.5 9.6.6 14.4-1.5a22 22 0 0 0 7.2-17 21.7 21.7 0 0 0-8.1-16.9c-4.4-2.9-10.2-5.8-15.2-2.5ZM102 762c11.9-1.5 11.9-1.5 16.7 2 2.3 2.5 4.3 5.2 6.3 8a200 200 0 0 0 5.2 6c5.7 6.6 5.7 6.6 11.8 13a976.7 976.7 0 0 0 .3-14v-5.6c-.4-2.9-1-3.7-3.3-5.4-2.1-.7-2.1-.7-4-1v-3h17v3l-2 1.6c-3 3.6-2.6 6.8-2.6 11.3v2.6a809.5 809.5 0 0 0-.2 13.8L147 808c-4.6-.8-6.7-3.6-9.7-7l-1.6-1.7-3.2-3.6-6.3-7L114 775v12.3c-.1 5 0 9.8 1 14.7 2.2 2.2 4 3 7 4v2h-18c1-3 1-3 2.5-4.3 4-4.7 2.7-14 2.7-19.8v-8.4c-.2-2.9-.9-5-2.2-7.5-3-1.8-3-1.8-6-3l1-3Zm291 0c5-1 9.1-1.1 14 0 4.4 3 7.4 7.8 10.5 12 2.5 3.3 5.3 6.2 8 9.2l1.6 1.6c2.2 2.5 4.5 4.9 6.9 7.2l-.4-10.8-.2-3.1v-3l-.2-2.7c-.1-2.6-.1-2.6-1.2-5.4-3-1.2-3-1.2-6-2v-3h17v3l-2 1.6c-3 3.4-2.6 6.8-2.6 11.1v2.5a768.2 768.2 0 0 0-.2 13.5L438 807c-4 0-4 0-5.6-1.3l-1.6-1.7-1.8-2a33629046779.3 33629046779.3 0 0 0-9-10l-2.2-2.5-3.2-3.6L405 775l-.1 10.6v3c-.1 7.4-.1 7.4 2.1 14.4a12 12 0 0 0 5 2v3h-17c1-3 1-3 2.5-4.4 3.2-3.4 2.3-9.1 2.5-13.6v-2a347 347 0 0 0 .3-10.2c-.4-4.4-1.3-7-3.3-10.8-2.5-1.5-2.5-1.5-5-2l1-3Zm1026.6-395.4c4.6 1.9 6.8 4.6 9.8 8.5l1.6 2c3.2 4.2 5 7.4 5 12.9-1.2 2.4-1.2 2.4-3 4.4l-2 2.3-2 2.3-1.9 2.3c-4.4 5.4-4.4 5.4-7.6 6.6-2.5.1-2.5.1-4.2-1l-5.3-5.9-2.5-2.7-2.5-2.9-2.4-2.7c-1.6-2.7-1.6-2.7-1.8-5.5 1.8-4.7 4.6-8.2 7.8-12.1l1.9-2.4c4.5-5.6 4.5-5.6 9-6.1ZM1109.4 98c4.3 1.2 6.2 3.3 8.8 6.8l1.3 1.5 3.5 4.7 1.9 2.5c1.5 3.3 1.2 5 .1 8.5-1.7 2.6-1.7 2.6-3.8 5l-2 2.5-2.2 2.5-1.8 2.7c-2.2 2.3-2.2 2.3-5.5 3.5-4.7-.3-5.8-1.6-8.8-5l-1.7-2c-.6-.6-1.2-1.2-1.7-2-6.3-7.1-6.3-7.1-6.8-10.6.6-5.2 5-8.7 8.3-12.6 1-1.2 1-1.2 1.8-2.5l1.8-2.2 1.5-2c1.9-1.3 1.9-1.3 5.3-1.4Zm472.9-.2c5 1.6 7 4.3 10 8.4l1.7 2c3 3.8 5.1 6.8 5 11.8-1.5 2.8-1.5 2.8-3.6 5.5l-2.3 2.9-2.1 2.6-1.4 2c-2 2.9-3.5 4-6.8 5-4.1 0-4.5-.2-7.3-2.9l-3.3-3.8-1.7-2c-6.3-7.2-6.3-7.2-6.8-10.7.6-5.2 5-8.7 8.3-12.6 1-1.2 1-1.2 1.8-2.5l1.8-2.2 1.5-2c1.9-1.3 1.9-1.3 5.2-1.5ZM514.2 761.6h2c6 0 10 1.8 14.5 5.8 5 5.6 6.7 10.6 6.6 18a29.5 29.5 0 0 1-9.4 19.3c-6.8 4.8-15.9 4.1-23.9 3.3a19 19 0 0 1-12-9 29 29 0 0 1-2.5-21.3 23 23 0 0 1 11.3-14c4.4-1.8 8.7-2 13.4-2.1Zm-12.9 7.7c-4.3 5.6-4 13-3.3 19.7 1.7 6.8 4.2 11 10 15 3.2 1.6 6.5 1.5 10 1 4.4-2.3 6.9-4.5 9-9 2.3-7.6 1.7-16-2-23a17.9 17.9 0 0 0-10-8c-6-.6-9 .7-13.7 4.3Zm-311.2-6.2c6.4 3.5 9.6 7.4 11.7 14.4.7 7.8.1 15.1-4.3 21.8-3.7 4.5-7.5 8-13.4 9-2.2.1-4.3.2-6.5.1h-2.3c-6.5-.2-11-1.3-15.8-5.8-5.5-5.9-6-12.6-5.9-20.3.7-6.3 3.4-11.2 7.8-15.7a33 33 0 0 1 28.7-3.5Zm-24.3 7.3c-3.8 5.6-3.4 12.1-2.8 18.6 1.6 6.8 4.2 11 10 15a17 17 0 0 0 10 1c5.2-2.3 7.3-5.4 9.3-10.4a28 28 0 0 0-2-20.7c-2.6-4-5.8-7.4-10.3-8.9-6.5-.6-9.8.7-14.3 5.4Z"/>
  <path d="M1888 670h16l-2 5c.6 2.3.6 2.3 1.9 4.3l1.2 2.1.9 1.6c3-2.8 4.7-5 6-9l-3-1v-3h28l-1 3h-2l-.1 13.7v4l-.1 3.7v3.5c.2 3.1.7 5.3 2.2 8.1l3 1-1 3h-30v-3h2l-1-2.1-1.5-2.8-1.4-2.7c-1.1-2.4-1.1-2.4-1.1-4.4a20.8 20.8 0 0 0-6 8v3l3 1v3l-14-1v-2l1.7-.6c3.2-2 5-4.6 7.2-7.6l1.3-1.7c1.4-2 1.4-2 2.8-5.1-.8-4.4-3-8-5.4-11.7l-1.7-2.8a24.3 24.3 0 0 0-5.9-5.5v-2Zm28.7 5-2 2.8c-.6 1-1.3 1.8-2 2.7-2.9 3.8-2.9 3.8-3.6 8.2 1.1 4 2.9 7 5.2 10.5l1.1 2c1.8 2.7 3.3 4.6 6.2 6.3 2.7.8 2.7.8 5.4-1.5.3-2.5.3-4.7.3-7.2v-2.1a719.7 719.7 0 0 0-.2-11.4l-.1-11.3c-4-2-7-2-10.3 1Z"/>
  <path fill="#261F21" d="M1522 761.6h2c6.5.2 10.8 1.4 15.5 5.8 5.4 6 6 11.6 5.8 19.3a27.7 27.7 0 0 1-8.3 17.3c-7.3 5.3-16.3 5.3-25 4a19.3 19.3 0 0 1-8-5l-1.5-1.4c-4.3-4.6-5.3-9.4-5.8-15.5.3-7.8 3.1-13.5 8.2-19.4a24.3 24.3 0 0 1 17-5.1Zm-12 7.4c-4.6 7.6-4.3 14.3-3 23 1.7 5.4 4.2 8.9 9 12a17 17 0 0 0 10 1c4.1-2 7-4.1 9.1-8.2a31.5 31.5 0 0 0-.1-20.8 21 21 0 0 0-12-11c-5.7-.7-8.7.3-13 4Zm470-7.4h2c6.5.2 10.8 1.4 15.5 5.8 5.4 6 6 11.6 5.8 19.3a29 29 0 0 1-9.3 18.3 29.8 29.8 0 0 1-15.4 3.5h-2.3c-5.9-.2-10-1.3-14.3-5.5l-1.5-1.4c-4.5-4.7-5.2-9.8-5.8-16 .7-7.7 3.1-13 8.2-18.9a24.3 24.3 0 0 1 17-5.1Zm-12 7.4a27.3 27.3 0 0 0-2.8 22.6c1.7 5.7 3.8 9.1 8.6 12.8 4.6 1.3 8.6 1.3 13-.6 5.6-4.6 7-8.6 8-15.7.4-7.1-1.3-12.6-5.8-18.1a17 17 0 0 0-11.3-5.3c-4.5.4-6.3 1.4-9.7 4.3Zm-306.3-5.4c5.1 3.2 8.4 7.6 10.3 13.4a33 33 0 0 1-6.3 25.4c-5.3 5.2-11 6.2-18.1 6.1h-2.3c-5.9-.2-10-1.3-14.3-5.5l-1.5-1.4c-4.5-4.6-5.2-9.8-5.9-16 .8-7.3 2.8-13.6 8.3-18.7a30.4 30.4 0 0 1 29.8-3.3ZM1637 769a27.3 27.3 0 0 0-2.8 22.6c1.7 5.7 3.8 9.1 8.6 12.8 4.6 1.3 8.6 1.3 13-.6 5.6-4.6 7-8.6 8-15.7.4-7.1-1.3-12.6-5.8-18.1a17 17 0 0 0-11.3-5.3c-4.5.4-6.3 1.4-9.7 4.3ZM89.6 763.6c4.8 2.9 8.6 7.1 10.4 12.4.8 9.3.7 17.3-5 25-4 4.3-8 6.8-13.8 7.3-16.3.4-16.3.4-22.7-5.7-5.6-6.2-6-12-5.8-20 .6-6.8 2.7-11.5 7.7-16 7.4-6 20.5-7 29.2-3ZM66 768c-4.6 5.5-4.5 11.8-4.3 18.7A23 23 0 0 0 71 804c5.2 1.7 9.3 1.7 14.3-.4a24.5 24.5 0 0 0 7.2-17.1 26.6 26.6 0 0 0-7.7-18c-5.8-4.4-13-5-18.8-.5Zm289-6h34c1 10 1 10 0 12h-2l-1-6c-3.3-1-6.3-1.1-9.8-1H371l-1 14 4.9-.3h2.7c2.6-.5 2.6-.5 3.7-2.7l.7-2h3v16h-2l-1-2.4c-1.7-2.8-1.7-2.8-4.4-3.2l-7.6-.4.4 7.4.2 2c.1 4 .1 4 1.4 7.6 6.3.4 10.8-.3 16-4l2-3h3c-.2 4-.6 6.4-3.1 9.7-3.6 2.9-5.4 2.9-10 2.8h-2a363.8 363.8 0 0 1-10.5-.3L357 808v-3l3-2c.3-2.8.3-5.3.3-8v-2.5a913.4 913.4 0 0 0-.2-12.8L360 767l-6-3 1-2Zm933 0h35v11h-3l-.8-2.4-1.2-2.6c-3-1-5-1.1-8.1-1.1h-2.7c-2.2-.1-2.2-.1-3.2 1.1v12c4 1.3 6.1.4 10-1l2-3h3v16h-3l-2-5-10-1v5.6l-.1 3.2c.1 3.1.5 6.1 1.1 9.2 7.2-.7 12.5-1.4 17.7-6.8 1.3-1.2 1.3-1.2 3.3-1.2-.5 7.3-.5 7.3-2.6 10.1-3.3 2.6-5.4 2.4-9.6 2.3h-2a493 493 0 0 1-11-.2l-10.8-.2 1-3 2-1c1.2-3.7 1.1-7.1 1.1-11v-2.3a2558.2 2558.2 0 0 0-.1-24.7l-6-1v-3Zm-142 0h34c1 3.9 1 7 1 11l-3 1-1-6c-3.3-1-6.3-1.1-9.8-1h-5.2l-1 14 4.9-.3h2.7c2.6-.5 2.6-.5 3.7-2.7l.7-2h3l1 16h-3l-2-5h-10v6.9l-.1 3.8c-.1 3.2-.1 3.2 1.1 5.3 6.3.4 10.8-.3 16-4l2-3h3c-.2 4-.6 6.4-3.1 9.7-3.6 2.9-5.4 2.9-10 2.8a220144611.9 220144611.9 0 0 0-22.9-.5v-3l3-2c2-5 1.2-11.1 1.2-16.5a732 732 0 0 1 0-10v-3.4c-.2-3-.5-4.7-2.2-7.1-2-.8-2-.8-4-1v-3Zm-193 0a1257.6 1257.6 0 0 1 25.7-.3c4.8.5 8 2.2 11.7 5.4 2.4 4.3 2.5 8 1.6 12.9-2 3.9-5 6.4-9 8l-5 .2h-2.7c-2.3-.2-2.3-.2-5.3-1.2v-3l1.9-.1 2.4-.2 2.4-.2c2.7-.6 3.6-1.4 5.3-3.5 1.4-3.5 1-5-.1-8.7-1.6-3.4-1.6-3.4-4.2-4.7-3-.7-5.7-.6-8.7-.6a2685.6 2685.6 0 0 0-.2 26.2v2.2c0 5.1 0 5.1 2.2 9.6 2.6.8 2.6.8 5 1v3h-21l1-3 2-1c1.2-3.6 1.1-6.5 1.1-10.2v-2.1a1352.3 1352.3 0 0 0 0-15.6v-4c.1-3 .1-3-1.1-5.1l-6-3 1-2Zm-296 0h21v3l-2 .5c-2.3 1.4-2.3 1.4-2.8 4.6-.3 4.3-.3 8.6-.4 13v2c0 5.6.5 10.8 4.1 15.3 4 3 8.3 3 13.1 2.6 4.2-1.3 5.6-2.3 7.8-6.1A59.5 59.5 0 0 0 699 766l-6-1v-3h16v3l-3 1c-1.2 3-1.1 6-1.2 9.1l-.1 3-.1 6.2c-.3 7.6-1 13.6-6 19.6-5 4-8.7 4.4-15 4.4h-2.2c-4.9 0-8.2-.7-12.4-3.3-4.8-5-5.1-9-5.3-15.7l-.1-4a29926.3 29926.3 0 0 1-.6-18.3l-6-2v-3Z"/>
  <path d="M1822 670h10c3.7 8.6 7 17.2 10 26 3.9-8.6 7.4-17.3 11-26h8v3l-1.5 1.2c-2.4 2.9-1.9 6.2-1.8 9.8v2.3c-.2 10.1-.2 10.1 2.3 19.7l3 1-1 3h-13v-3h2v-3.9l.1-2.2c-.1-4.3-.7-8.6-1.1-12.9l-8 21h-3l-8-21-.3 7.3v2.2c-.1 3.6 0 5.2 2.3 8l2 1.5-1 3h-10l-1-3 1.5-1.1c2-2.6 2-4.4 2-7.7l.2-3.5.1-3.6.2-3.7c.5-7 .5-7-2-13.4l-3-1v-3Z"/>
  <path fill="#261F21" d="M1743 762h21v3l-2 .6c-2.3 1.3-2.3 1.3-2.6 4.4a124.5 124.5 0 0 0-.7 16c0 5.4.7 9.2 3.3 14 4.4 3.2 8.7 3.8 14 3 4.2-1.3 5.6-2.2 7.6-6 1.7-4.2 2-8 2.2-12.4v-2.2c.3-5 0-9.5-.8-14.4-2.1-2.1-3.1-2.4-6-3v-3h16v3l-3 1c-1.3 2.5-1.2 4.3-1.2 7.1l-.1 3.2-.1 6.5c-.2 7.2-.6 14.5-5.4 20.4l-1.8 1.3-1.8 1.4c-4 2.7-7.8 2.4-12.3 2.4l-2.5.1a17 17 0 0 1-12.8-4.4c-3.8-4.4-4.1-8.2-4.3-13.9v-2a2078.9 2078.9 0 0 1-.7-21.1l-6-2v-3Zm-955 0h20v3l-3 1c-1.2 5.5-1.2 10.8-1.3 16.4v3.1c0 5.6 0 9.8 3.3 14.5 5.7 4 10.8 3.4 17.3 2.6 3.6-2.1 4-4 5.1-7.9 1.1-5 1-10 1-15.1v-3.3c.3-5.7.3-5.7-2.4-10.3l-5-2v-2h17l-1 3h-3v2.2l-.3 10.2v3.5c-.6 16.7-.6 16.7-5.5 22-5.2 4.7-9 5.3-15.9 5.4l-2.4.1c-5.8 0-9.3-.8-13.9-4.4a29 29 0 0 1-3.5-14.5v-2a683.3 683.3 0 0 1-.3-10.8L794 766l-6-1v-3Zm316 0c3 1 3 1 4.8 4.3l1.9 4.5 1 2.4a1317.5 1317.5 0 0 1 8.6 19.8 24 24 0 0 0 7.9 12.3l1.8.7v2h-20v-3l3-2-3-11-7.3.1h-2.1c-2.3 0-2.3 0-5.6.9a14 14 0 0 0-3 10l6 2v3h-17c1-3 1-3 2.4-4.4a18 18 0 0 0 3.8-6.1l1.2-2.7 1.3-3 2.7-5.9 1.3-3 5.9-12.7 1-2.2c2.3-4.9 2.3-4.9 3.4-6Zm-2 13-2.5 4.8-1.4 2.7c-1.3 2.5-1.3 2.5-1.1 5.5h11l-1.4-4.3-.7-2.3c-.9-2.3-1.8-4.3-2.9-6.4h-1Zm-93-13h3l1.1 2.5a70136.9 70136.9 0 0 0 16 35.4c.9 2.1.9 2.1.9 4.1l5 1v3h-20l1-3 2-1c-.5-4.1-1-7.4-3-11a285 285 0 0 0-6.8-.3l-3.8-.2c-3.5.1-3.5.1-5.3 2.8a14.7 14.7 0 0 0-1.1 7.7l5 2v3h-16v-3l1.8-1.3c3-2.3 3.8-4.7 5.3-8.2l.8-2a797.2 797.2 0 0 0 6-14l.7-2a220 220 0 0 1 7.4-15.5Zm-2 13-2.5 5.4-1.4 3c-1.2 2.4-1.2 2.4-1.1 4.6h12l-5-13h-2Zm373-13h3a30327.8 30327.8 0 0 1 13.2 30.2l1 2.5 1.1 2.4 1 2 1.7 4.9 5 1v3h-20l1-3h2l-.4-3.8-.2-2c-.4-2.6-.4-2.6-2.4-6.2h-15l-3 9c2.1 2.1 3.1 2.4 6 3v3h-16v-3l1.8-1.8c2.6-2.6 3.8-5.2 5.3-8.6l.8-1.8a912.1 912.1 0 0 0 6-13.6l.7-1.9c2.3-5.2 4.8-10.3 7.4-15.3Zm-2 13-2.5 5.4-1.4 3c-1.2 2.4-1.2 2.4-1.1 4.6h12l-2.4-6-1.3-3.3c-1-2.8-1-2.8-3.3-3.7Zm-467-13h3l1.5 3.5a12181.8 12181.8 0 0 0 11.6 26.7l1 2.5 1.1 2.4 1 2c1.7 3.7 3.2 5.3 6.8 6.9v2h-20v-3l3-2a28 28 0 0 0-3-10h-15l-1.5 4.4-.8 2.4c-.8 2.1-.8 2.1-.7 4.2l6 1v3h-16v-3l1.8-1.7c3-3.1 4.3-6.5 6-10.5a288267664.7 288267664.7 0 0 1 9.6-22c1.4-3.2 2.7-6 4.6-8.8Zm-2 12-2.5 5.3-1.4 3c-1.3 2.7-1.3 2.7-1.1 5.7h12l-6-14h-1Z"/>
  <path d="M1464 670c4.8 2 7.2 4.9 9.3 9.5 2.2 8 1.3 16-2 23.5a17 17 0 0 1-6.3 6c1.6 1.7 1.6 1.7 4 3 3.2-.2 3.2-.2 6-1a8.7 8.7 0 0 1-2.6 5.8c-3.6 1.8-5.4 1.8-9.4 1.2a81.5 81.5 0 0 1-7.7-5.6c-2.2-1.6-2.2-1.6-4.5-1.3-2 .8-2 .8-3 3.5l-.8 2.4h-2c-.1-6.6-.1-6.6.7-9.2l.3-1.8-3-4a31 31 0 0 1 0-23c4.5-9 12-10 21-9Zm-13.3 5.4c-4 6-3.2 12.6-2.7 19.6 1.1 4.4 2.8 7.7 5.9 11 3 1.4 4.8 1.6 8.1 1 5-4.8 6.1-8.5 6.3-15.2 0-7-2-12.2-6.7-17.4-4.4-2.4-7.3-2.8-11 1Z"/>
  <path fill="#261F21" d="m45 765 3-1c1.4 2.9 1 5.4 1 8.6v6.4c-3.5-1.2-3.6-1.7-5.3-4.8A17 17 0 0 0 34 766c-3.5-.7-6.5-.8-9.8 1-3.4 2.6-5 5-6.2 9-.9 7.7-.7 14.6 4 21a13 13 0 0 0 7 5c5.7.4 9 .1 14-3l4-4h2c-.5 4.3-1.6 6-4.9 8.8l-2 1.7c-4 2.9-7.7 2.7-12.4 2.8h-4c-4.7-.4-8-1.7-11.5-5-.5-.5-1-1-1.4-1.7l-1.5-1.7c-4.2-6.2-4-12.7-3.3-19.9a26.8 26.8 0 0 1 11.4-16.3A29.6 29.6 0 0 1 45 765Zm508-3h20v3l-2 1a29 29 0 0 0 4 10.8l1.7 3 1.3 2.2 2.4-3.8 1.3-2c2.6-4 2.6-4 3-8.5l-.7-1.7-4-1v-3h17v3l-2.7 1.7c-4 2.8-5.5 5.5-7.5 9.9-3.7 7.3-3.7 7.3-5.8 10.4a109 109 0 0 0-.1 8.2v2.3l.1 5.5 7 3v2h-24v-3l6-1c1.4-10.5 0-17.6-5.1-26.8l-1.5-2.6c-2.8-4.8-5-7.7-10.4-9.6v-3Zm-107 0h41c1.3 2.5 1.1 4.3 1 7.1v4.9l-3-1-1-2.6-2-2.4c-2.4-.3-2.4-.3-5.1-.2l-2.8.1-2.1.1a1704.6 1704.6 0 0 0-.3 25.5v2.1c0 4 0 4 1.7 7.3 1.8 1.3 3.4 1.7 5.6 2.1v3h-24l1-3 5-1 1-37c-9.5-.1-9.5-.1-13 4-1.2 2.6-1.2 2.6-2 5l-3-1 2-13Zm192-.3h3.5c3.8.3 6.1 1.6 9.5 3.3l4-1 1 15h-3c-1.2-1.6-1.2-1.6-2.4-3.8-2.5-4.2-5.2-7-9.6-9.2-5.3-.3-8.8-.6-13 3-3.7 6.2-5 12-3.5 19.3A22 22 0 0 0 635 802a17 17 0 0 0 15.2-3.7c1.8-1.3 3.7-2.3 5.8-3.3 0 2.8-.6 4.5-2.5 6.6-7 6-12.4 7.1-21.5 6.8-5.5-.4-9.3-2.4-13-6.4-4.4-5.8-5.6-13-4.7-20.2A27.6 27.6 0 0 1 626 764c4-2 7.4-2.3 12-2.3Zm-409.5-.1h3.8c4 .4 6.3 1.7 9.7 3.4l4-1 1 15h-3c-1.2-1.6-1.2-1.6-2.4-3.8-2.5-4.2-5.2-7-9.6-9.2-4.7-.6-8-.8-11.9 2-4 5.7-6 11-5.1 18a27 27 0 0 0 7 14c4.3 2.5 8.2 2.8 13 2a39 39 0 0 0 6.2-3.7c1.8-1.3 3.7-2.3 5.8-3.3 0 2.8-.6 4.5-2.5 6.6-7 6-12.4 7.1-21.5 6.8-5.5-.4-9.2-2.4-13-6.4a28.2 28.2 0 0 1-5-19 27 27 0 0 1 10-18c4.6-2.8 8.1-3.4 13.5-3.4ZM1356 763c1 4.8 1 9.2 1 14l-3-1-1.3-2.8a14 14 0 0 0-7.7-7.2c-3.8.1-3.8.1-7 1l-2 5c3.6 4.2 8 6 12.9 8.2a17 17 0 0 1 9.1 8.8c1 5 .5 9-1.8 13.4-4.7 5.4-4.7 5.4-9 6-5.7-.1-10.8-.4-16.2-2.4a45.1 45.1 0 0 1-2-15h2l1 1.8c3.3 6.6 3.3 6.6 9 11.2 3.4.5 5.3.3 8.4-1 2.4-3 1.7-5.4 1.6-9l-1.6-.9-7.2-3.9-2.5-1.3-2.5-1.3-2.2-1.2c-2.3-1.6-3.5-3-5-5.4-.8-4.4-1-9 1-13 6.3-7.6 16.2-5.3 25-4Zm-607.2-1.1h7.7a3424.4 3424.4 0 0 1 28.5.1c2.3 7.6 2.3 7.6 1 12h-2l-2-6-12-1a2372.1 2372.1 0 0 0-.2 24.6v4c.2 3.2.4 4.9 2.2 7.4 3 1.8 3 1.8 6 3v2h-24v-3l2.4-.9c2.7-.8 2.7-.8 3.6-3.1l.1-7.4v-2.2a2297.5 2297.5 0 0 0-.1-23.4l-4.3-.1-2.4-.1c-2.6 0-2.6 0-5.3 2.2-1.2 3-1.2 3-2 6h-3l.4-6.4.3-3.7c.5-4.3.5-3.9 5-4Z"/>
  <path d="m1698 670 9.7-.2h2.8c5-.1 8.5-.1 12.5 3.2 2.6 3.4 2.4 6.8 2 11-1.4 3-1.4 3-3 5h-2c1 2.5 2.2 5 3.3 7.4l.9 2.2c1 2.3 1 2.3 2.8 5.4 2 .8 2 .8 4 1v3a10 10 0 0 1-6.5 2c-3.5-1.4-4.9-3.7-6.5-7l-2.9-7.8c-1.3-2.6-2.4-3.2-5.1-4.2l.3 6.9.2 3.8.5 3.3 3 2v3h-14l2-4c.3-3.4.3-3.4.2-7.2v-2a986 986 0 0 0-.2-21.8l-4-2v-3Zm12 3v15h7c2.3-3.5 2.3-4.9 2-9-1.2-3.3-2-4-5-6h-4Z"/>
  <path fill="#261F21" d="M1547 762h20v3h-3a6589.6 6589.6 0 0 0-.1 28.8v2.4l.1 5.8c1.1 1.3 1.1 1.3 4 1.3a28 28 0 0 0 17-8.3c1 3 1 3-.2 6.5-1.8 3.5-2.5 4.6-5.8 6.5-3.1.3-3.1.3-6.7.3a586731841.4 586731841.4 0 0 0-22.3-.3v-3l3-2c.3-2.8.3-5.3.3-8v-2.5a913.4 913.4 0 0 0-.2-12.8l-.1-12.7-6-2v-3Zm38 0h20v3l-3 1c-1 3.2-1.1 5.6-1.1 9v10.9c0 5.8 0 11.4 1.1 17.1 5.5.3 10-.3 15-3 2.3-2.6 2.3-2.6 4-5h2c.5 5.3-.7 7.9-4 12-2.9 1.4-5.3 1.1-8.5 1.1h-4a26737 26737 0 0 1-18.5-.1v-3l1.5-1.2c2.4-2.8 1.9-6 1.8-9.5V792a804 804 0 0 0-.2-12l-.1-12-6-3v-3Zm-874 0h20v3l-3 1a27 27 0 0 0-1.1 9.5v19.3c0 2.9.4 5.4 1.1 8.2 5.5.3 10-.3 15-3 2.3-2.6 2.3-2.6 4-5h2c.5 5.3-.7 7.9-4 12-2.9 1.4-5.3 1.1-8.5 1.1h-4a26737 26737 0 0 1-18.5-.1v-3l1.5-1.2c2.4-2.8 1.9-6 1.8-9.5V792a804 804 0 0 0-.2-12l-.1-12-7-4 1-2Zm474 0h20v3l-4 2a5496 5496 0 0 0-.1 26.4v2.2c0 3.8 0 3.8 1.1 7.4 7 .4 12-1.2 17.4-5.7l2.6-2.3c1.1 3.4 1 4.8-.3 8.2-1.7 2.8-1.7 2.8-4.7 4.8-3 .2-3 .2-6.9.2h-2a934.4 934.4 0 0 1-21.1-.2l1-3 2-1c1.2-3.6 1.1-6.5 1.1-10.2v-2.1a1352.3 1352.3 0 0 0 0-15.6v-4c.1-3 .1-3-1.1-5.1l-6-2 1-3Z"/>
  <path d="M1996.5 671.5a22 22 0 0 1 7 16.9c-.3 7.4-1.7 13.9-7.1 19.2-5 3-9.6 3-15.4 2.4a21 21 0 0 1-10-10 31.7 31.7 0 0 1 1.7-22.8c5.2-8.7 15-9.5 23.8-5.7ZM1978 678a33.5 33.5 0 0 0 .8 22.8c2.5 3.8 2.5 3.8 6.2 6.2 3.6.2 3.6.2 7-1 4.6-5.4 5.4-10.4 5.3-17.3a22 22 0 0 0-6.3-14.5c-5.6-3.4-9.2-.9-13 3.8Zm-190-8c4.8 2 7.2 4.9 9.3 9.5a30.6 30.6 0 0 1-2 22.6 21.7 21.7 0 0 1-8.3 7.9c-5.2.5-9.6.6-14.4-1.6a21.5 21.5 0 0 1-7.8-14.8c-.2-7 .7-12.6 4.2-18.6 5.8-5.7 11.1-5.7 19-5Zm-13.4 5.4c-3.8 6.1-3.3 13.5-2.6 20.6 1.1 4 3 6.9 5.8 10 3.5 1.5 5.6 1 9.2 0 4.5-5.2 5.3-10 5.2-16.8-.5-5.5-2.2-9.9-5.5-14.3-2.6-2.2-2.6-2.2-6.3-2.5-3.5.3-3.5.3-5.8 3ZM1526 670c3.7-1 6.4-1.2 10 0 4 3.7 6.8 8.5 9.8 13a1492 1492 0 0 1 8.3 12v-10.5c0-4-.1-7.6-1.1-11.5l-4-1v-2h12v3l-2 1-2 36h-2c-1.2-1.4-1.2-1.4-2.6-3.4l-1.5-2.1-1.6-2.4-1.6-2.3a1677.3 1677.3 0 0 1-8.8-12.8l-1.6-2.3c-1.2-1.8-1.2-1.8-3.3-2.7l.8 11.4.1 3.2.3 3.2.2 2.9c.4 2.5.4 2.5 2.7 3.6l1.9.7v3h-12v-3l2-1c1.4-5.4 1.2-11 1.2-16.6v-2.8c.1-6.6.1-6.6-2.2-12.6l-3-1v-3Z"/>
  <path d="m1746.8 669.8 3.2-.1a14 14 0 0 1 8 3.3 26.5 26.5 0 0 1-4 36c-5.2 1.7-10.8 2-15.9-.3a20 20 0 0 1-8.1-11.7c-.7-7.5-.6-14.3 3-21 4.3-4.5 7.7-6.2 13.8-6.3Zm-8.8 7.2a31.6 31.6 0 0 0 1 25c2.6 3.4 3.8 4.8 8 5.6 4.1-.8 5.5-2.2 8-5.6a31 31 0 0 0-.3-22.4c-2-3-3.6-4.8-6.7-6.6-4.9-.8-7.1 0-10 4Zm125-7h24v10h-2l-2-5-9-1v13c6-1.3 6-1.3 8-5h2v14h-2l-1-5h-6v14c6.2 0 7 0 11-4l1-2h2c.3 3.5.2 5.6-1.3 8.7-4.2 3.6-8.2 2.8-13.5 2.6h-3l-7.2-.3v-3l2-1v-32l-3-1v-3Zm-389 0h15l-1 3h-2l-.2 12.7v7.1l-.1 3.2a14 14 0 0 0 3.3 8c2.8 1.4 4.9 1.2 8 1 2.4-.9 2.4-.9 4-3a55.5 55.5 0 0 0 2.3-17.3v-2.4c.2-4.3.2-4.3-1.7-8-1.6-1.4-1.6-1.4-3.6-2.3v-2h12l-1 3h-2v1.7c.5 25.5.5 25.5-4.4 31.9-4.1 3.8-7.8 3.7-13.2 3.6-3.2-.3-5-1-7.4-3.2a23.1 23.1 0 0 1-3.5-12.7l-.1-3.8v-3.9l-.2-4-.2-9.6-4-1v-2Z"/>
  <path fill="#261F21" d="M331 762h20v3l-3 1a26 26 0 0 0-1.1 9.2v18.5A72 72 0 0 0 348 804l6 1v3h-21c1-3 1-3 4-5 .3-2.7.3-5.2.3-7.9v-2.3a862.8 862.8 0 0 0-.2-12.5L337 768l-6-3v-3Zm-82 0h20v3l-4 2a5113 5113 0 0 0-.1 25.5v2.1c0 3.1.1 5.5 1.1 8.4 3 1.2 3 1.2 6 2v3h-21v-3l3-1c1.5-3 1.1-6 1.1-9.3v-2.2a1452.6 1452.6 0 0 0 0-16.2v-2c0-3.8 0-3.8-1.1-7.3l-6-2 1-3Z"/>
  <path d="m1670 670 3 1c1 2.5 2 4.9 2.8 7.5l.8 2.2a987 987 0 0 1 6.3 19c1.5 4.3 1.5 4.3 5.1 7.3v3h-14v-3h2c-.5-3.5-.9-6.7-2-10l-10-1-1 10 3 1v3h-11a53 53 0 0 1 3.1-9 293.3 293.3 0 0 0 8.3-22.7l.8-2.2c.8-2.1 1.8-4 2.8-6.1Zm-1 12-4 10h8l-3-10h-1Zm-431.5-12.2h2.8c2.8.2 4.3.9 6.7 2.2h2l1 13h-2l-.8-1.9c-2.8-5.6-2.8-5.6-7.7-9.4-3.4-1-3.4-1-6.3.4-3.3 3-4.1 4.9-4.5 9.4v7.8c.4 4.6 1.8 7.9 4.7 11.5 2 1.5 3 2 5.6 2.2a17 17 0 0 0 9-7h2c-.5 4.4-2 6.8-5 10a19 19 0 0 1-14 2c-4.3-2.2-7-5.4-9-9.8a31.7 31.7 0 0 1 2-23.2c3.7-5.6 6.9-7.3 13.5-7.3Zm95 0h2.8c2.8.2 4.3.9 6.7 2.2h2l1 13h-2l-2.8-4.9c-2-3.4-2.8-4.9-6.3-7-3.7-.2-5 .5-7.9 2.9a24 24 0 0 0-2.3 12v3.5c.4 4.5 2 7.8 4.7 11.3 2 1.5 3 2 5.6 2.2a17 17 0 0 0 9-7h2c-.5 4.4-2 6.8-5 10a19 19 0 0 1-14 2 17.2 17.2 0 0 1-9-10.3c-2.1-8-1.4-15.2 2-22.7 3.7-5.6 6.9-7.3 13.5-7.3Zm628.5.2 4 2h3v13h-2l-.7-1.6c-2.3-5-4-8-9.3-10.2-2.8-.3-3.8 0-6 1.8a26.4 26.4 0 0 0-2.4 20.4c1.2 3.5 2.6 6.1 5.4 8.6 2.3 1.1 2.3 1.1 5 1 3.1-1.7 3.1-1.7 6-4l2.4-1.8 1.6-1.2c-.1 3-.3 5.2-2.3 7.5a17 17 0 0 1-13.4 4.8c-3.7-.5-5.6-1.8-8.3-4.3a24.7 24.7 0 0 1-4.7-18.6 29.2 29.2 0 0 1 7.8-15.8c4.4-2.4 9-2.2 13.9-1.6Zm-1238 2c4.2 3.2 5.6 6 7 11 1 9.6-.3 17.6-5.8 25.6-3.3 2-5.4 2-9.2 1.4-4.1-3-5.8-5.9-6.7-10.8a33.8 33.8 0 0 1 4.8-24.3c3.2-3.2 5.4-3.4 9.9-2.9Zm-7 4c-3.7 6-3.8 11-2.4 18 1.3 6.2 1.3 6.2 5.4 11 2.7-.2 2.7-.2 5-1a32 32 0 0 0-.9-23 9.7 9.7 0 0 0-5.4-4.9l-1.7-.1Z"/>
  <path d="M746 672c5.1 4.9 7 9.7 7.3 16.8A28.2 28.2 0 0 1 746 709a12.2 12.2 0 0 1-8 1c-4.2-3.2-5.6-6-7-11-.9-8.3-.3-15.8 4-23 3.4-3.7 6-5 11-4Zm-7 4c-3.6 3.9-3.4 8-3.3 13 .5 5.2 1.5 10.6 4.7 14.8 1.8 1.6 1.8 1.6 5.6 1.2 3.5-5.8 2.8-13.4 1.4-19.7-1.2-3.9-2.2-6.7-5.4-9.3h-3Zm824-6h28c1.6 3.2 1 6.4 1 10h-2l-1.3-2.5-1.7-2.5c-3-.2-3-.2-6 0a786.3 786.3 0 0 0-.6 26c.3 3.2.3 3.2 3.1 5l2.5 1-1 3h-16v-3l3-1c1.4-2.9 1.1-5.3 1.1-8.5v-4a26737 26737 0 0 0-.1-18.5l-7 1-2 6h-2v-4.9l-.1-2.7c.1-2.4.1-2.4 1.1-4.4Z"/>
  <path d="M765.5 671.3c3.8.8 5.3 1.7 7.5 4.9a30.9 30.9 0 0 1 2 21.8c-1.9 5-3.5 9-8 12-3.9.4-6 .6-9.3-1.6-5-7-4.3-15.3-3.7-23.4 1.3-6.7 4.5-12.3 11.5-13.7Zm-5.2 6.3c-3.3 6-2 15.1-.1 21.6 1.2 3 1.8 3.8 4.5 5.9l2.3.9c2.8-2.6 3.8-4.5 4.2-8.3.2-7.2-1-13.2-4.2-19.7l-2-2c-3-.3-3-.3-4.7 1.6ZM700 672c3 2.5 3.8 4.2 4.6 8a54.2 54.2 0 0 1-10.6 22c4.7.5 4.7.5 8.8-1.5l1.2-1.5h3l-3 10c-5.7 1.2-11.2 1-17 1 .6-4.8 2.7-8.5 5-12.6 4-7.1 4-7.1 5-15V678c-3.7.5-6.7 1.1-10 3a10 10 0 0 1 3.1-7.3c3.7-2.2 5.7-2.4 9.9-1.7Zm811-2h14v3h-3l1 32 4 2v3h-14c0-3 0-3 2-6 .3-3 .3-3 .2-6.3v-11.8c.3-6 .3-6-1.2-11.9l-3-1v-3Zm292 30c3.5.5 3.5.5 5 2 .7 5 .5 8.9-2.3 13l-2.7 3h-3l1-2.2a16 16 0 0 0 1-7.8l-2-2c.4-3 .9-3.9 3-6Zm-382 0c3.5.5 3.5.5 5 2 .5 6.4-.2 9.8-4 15-2.3 1-2.3 1-4 1l1-2.2a16 16 0 0 0 1-7.8l-2-2c.4-3 .9-3.9 3-6Zm456-42 5 1c-.5 4.3-2.8 6.3-6 9h-3c.6-4 1.8-6.7 4-10Z"/>
</svg>
